<?xml version="1.0" standalone="no"?>
<!DOCTYPE svg PUBLIC "-//W3C//DTD SVG 20010904//EN"
 "http://www.w3.org/TR/2001/REC-SVG-20010904/DTD/svg10.dtd">
<svg version="1.0" xmlns="http://www.w3.org/2000/svg"
 width="1250.000000pt" height="1262.000000pt" viewBox="0 0 1250.000000 1262.000000"
 preserveAspectRatio="xMidYMid meet">

<g transform="translate(0.000000,1262.000000) scale(0.100000,-0.100000)"
fill="#000000" stroke="none">
<path d="M0 6310 l0 -6310 6250 0 6250 0 0 6310 0 6310 -6250 0 -6250 0 0
-6310z m9695 1790 c186 -17 477 -72 527 -100 10 -6 22 -10 28 -10 21 0 206
-73 300 -118 84 -40 287 -156 300 -171 3 -3 32 -26 65 -51 33 -25 62 -47 65
-50 3 -3 25 -21 50 -41 93 -76 222 -210 346 -362 90 -110 209 -319 305 -532
69 -154 135 -432 160 -675 13 -118 7 -404 -10 -495 -57 -308 -77 -384 -153
-567 -29 -72 -142 -287 -185 -353 -101 -154 -248 -322 -363 -414 -25 -20 -47
-39 -50 -42 -5 -6 -160 -109 -205 -136 -40 -24 -162 -80 -201 -93 -21 -7 -44
-16 -49 -21 -22 -16 -196 -62 -365 -95 -119 -24 -522 -27 -635 -6 -38 8 -106
20 -150 28 -44 8 -89 19 -100 24 -11 5 -49 17 -85 26 -36 9 -69 20 -75 24 -5
4 -28 13 -49 20 -22 7 -65 26 -97 41 -32 16 -61 29 -64 29 -3 0 -11 5 -18 10
-7 6 -43 29 -82 52 -38 23 -72 44 -75 47 -3 3 -21 18 -42 33 -74 56 -170 157
-283 300 -21 26 -128 208 -152 258 -31 65 -69 159 -82 205 -7 22 -17 49 -22
60 -11 25 -46 186 -60 280 -17 114 -6 403 20 510 62 256 169 455 330 614 92
91 132 125 161 141 10 6 25 16 32 22 30 28 180 106 281 146 142 57 260 85 456
108 122 14 162 15 250 5 120 -14 271 -40 286 -51 6 -3 30 -12 55 -19 101 -28
274 -135 366 -225 142 -140 257 -365 295 -576 19 -106 16 -355 -5 -450 -35
-156 -100 -300 -186 -415 -18 -24 -180 -186 -201 -200 -184 -130 -423 -197
-644 -181 -94 7 -116 11 -230 45 -155 45 -312 155 -389 272 -101 151 -148 320
-150 539 -1 124 18 285 35 296 5 3 9 12 9 21 0 9 16 50 36 90 49 99 124 172
223 219 42 20 83 40 92 44 37 19 187 40 283 40 142 0 278 -34 366 -90 8 -6 24
-14 35 -19 33 -14 154 -117 187 -158 81 -101 111 -250 88 -438 -17 -139 -65
-269 -125 -339 -24 -28 -26 -29 -45 -11 -16 14 -17 20 -7 29 16 13 67 82 67
90 0 4 9 25 19 49 29 63 41 113 48 211 5 75 4 88 -8 81 -12 -8 -12 -6 0 8 11
15 12 30 2 90 -21 126 -78 224 -179 306 -58 48 -182 116 -182 101 0 -6 -4 -10
-10 -10 -5 0 -7 7 -3 17 5 13 2 15 -15 11 -12 -4 -22 -3 -22 1 0 14 -149 41
-226 41 -93 0 -132 -8 -112 -22 9 -7 3 -8 -19 -4 -17 3 -56 -2 -85 -10 -67
-20 -73 -24 -57 -36 10 -7 8 -8 -7 -3 -34 9 -129 -48 -119 -73 4 -12 3 -12 -9
-3 -11 9 -24 1 -65 -46 -28 -31 -51 -60 -51 -64 0 -4 8 -10 18 -12 11 -3 7 -5
-10 -6 -23 -1 -30 -10 -57 -74 -46 -112 -66 -216 -38 -202 6 4 4 0 -5 -8 -21
-16 -24 -47 -5 -47 6 0 4 -5 -5 -11 -14 -7 -18 -23 -18 -62 0 -57 36 -282 47
-301 4 -6 8 -13 8 -16 2 -19 51 -130 58 -130 5 0 5 5 1 12 -4 7 -3 8 5 4 6 -4
9 -11 6 -16 -9 -14 6 -40 24 -41 9 0 11 -3 4 -6 -15 -5 84 -113 104 -113 7 0
13 -6 13 -12 0 -19 111 -90 129 -83 9 3 12 3 8 -1 -15 -15 143 -75 247 -93 68
-12 310 -15 303 -3 -3 4 14 8 36 9 74 3 78 4 71 15 -4 6 -3 8 3 5 14 -9 105
19 168 50 256 128 447 382 500 668 9 47 13 89 10 95 -3 5 -1 10 4 10 16 0 14
70 -1 71 -10 0 -10 2 0 6 20 8 14 136 -12 263 -24 111 -57 206 -68 194 -3 -3
-9 0 -14 7 -4 8 -3 10 4 5 7 -4 12 -3 12 2 0 17 -59 130 -91 175 -17 23 -39
57 -51 75 -14 23 -26 31 -37 27 -8 -3 -12 -3 -9 1 11 10 -11 44 -28 44 -8 0
-13 4 -9 9 6 10 -95 97 -132 114 -13 6 -23 15 -23 20 0 5 -7 4 -14 -3 -8 -6
-25 -10 -38 -7 -20 4 -20 4 5 6 15 0 27 5 27 9 0 13 -70 43 -82 36 -6 -4 -8
-2 -5 4 4 6 -17 18 -53 30 -33 12 -60 18 -60 14 0 -4 -4 0 -10 8 -6 10 -26 14
-67 13 -33 0 -48 2 -34 6 38 10 -181 41 -288 41 -160 -1 -451 -54 -451 -83 0
-5 -7 -6 -16 -3 -20 8 -174 -54 -269 -107 -70 -39 -176 -106 -185 -116 -3 -4
-23 -19 -44 -36 -69 -51 -157 -148 -178 -197 -7 -15 -16 -28 -20 -28 -4 0 -14
-13 -23 -30 -9 -16 -12 -30 -8 -30 4 0 0 -6 -9 -12 -20 -15 -84 -141 -94 -183
-4 -16 -10 -34 -14 -40 -4 -5 -16 -44 -25 -85 -9 -41 -21 -91 -26 -110 -5 -19
-12 -88 -16 -152 l-6 -118 24 -1 24 -2 -24 -4 c-24 -5 -24 -5 -18 -106 6 -98
34 -239 50 -245 4 -2 7 -8 7 -13 0 -6 -4 -8 -9 -5 -4 3 -6 -6 -3 -19 2 -14 8
-22 12 -20 5 3 12 0 16 -6 4 -8 3 -9 -4 -5 -7 4 -12 2 -12 -5 0 -13 44 -139
64 -184 8 -16 21 -47 30 -68 8 -20 22 -40 30 -43 9 -3 13 -11 10 -16 -9 -14
28 -78 44 -78 7 0 10 -4 7 -10 -7 -11 30 -69 108 -170 62 -80 103 -113 127
-105 9 3 7 -1 -4 -10 -11 -8 -16 -15 -10 -15 5 0 29 -20 54 -45 25 -24 49 -44
53 -45 4 0 18 -9 30 -21 62 -59 202 -139 394 -225 17 -8 43 -14 57 -14 14 0
26 -4 26 -9 0 -12 158 -54 176 -47 8 3 14 2 14 -2 0 -13 144 -36 148 -23 2 7
9 5 20 -5 14 -14 44 -16 246 -11 200 4 250 8 369 32 75 15 137 32 137 37 0 5
4 7 8 4 9 -6 142 28 177 44 11 6 40 17 65 25 24 9 53 23 63 33 10 9 24 17 30
18 7 0 20 2 29 2 12 2 16 8 12 20 -4 12 -3 13 3 4 7 -10 20 -7 59 15 27 15 51
31 52 35 2 4 8 8 14 8 21 0 130 75 185 127 32 30 52 51 44 47 -9 -5 -12 -3 -7
4 4 7 13 12 19 12 15 0 117 99 155 149 15 20 39 50 54 66 16 17 28 33 28 37 0
4 6 13 13 20 37 38 169 266 161 279 -3 5 -1 9 4 9 8 0 52 90 67 139 5 18 4 22
-5 16 -9 -5 -11 -4 -6 4 4 6 12 9 17 6 8 -6 10 -1 13 38 1 6 5 15 9 18 12 9
49 138 82 286 4 16 1 21 -9 17 -8 -3 -17 -1 -21 5 -3 7 2 11 13 11 30 0 45 79
46 237 1 73 5 133 9 133 5 0 6 19 3 43 -3 23 -8 93 -11 154 -6 149 -68 467
-87 448 -3 -3 -3 6 0 21 3 17 1 25 -6 20 -6 -4 -8 1 -5 13 3 10 -5 40 -16 66
-12 26 -21 52 -21 57 0 21 -98 236 -153 335 -35 62 -43 71 -56 60 -14 -11 -14
-10 -2 6 12 15 7 28 -49 110 -35 50 -66 94 -70 97 -4 3 -11 13 -17 23 -28 53
-263 297 -286 297 -9 0 -16 4 -15 9 5 16 -52 61 -70 55 -12 -4 -13 -3 -4 3 9
7 -7 24 -57 61 -39 29 -74 52 -79 52 -5 0 -16 8 -25 18 -9 10 -36 28 -59 41
-24 12 -61 33 -83 46 -22 12 -43 21 -47 18 -5 -2 -8 0 -8 5 0 10 -54 35 -76
35 -7 0 -15 6 -18 13 -3 8 -12 11 -21 8 -8 -3 -15 -1 -15 5 0 6 -14 11 -32 11
-17 0 -28 3 -25 7 9 8 -27 26 -98 47 -33 9 -67 21 -75 25 -9 5 -29 11 -45 15
-17 3 -43 9 -60 12 -16 4 -44 7 -62 8 -17 1 -29 4 -27 8 10 16 -157 40 -286
40 -67 0 -91 3 -65 7 38 6 36 7 -30 14 -219 22 -574 -7 -880 -72 -55 -12 -113
-26 -130 -31 -16 -5 -84 -26 -150 -46 -66 -20 -122 -40 -125 -44 -3 -4 -18
-10 -35 -14 -16 -4 -35 -16 -43 -27 -7 -10 -23 -24 -35 -30 -15 -7 -13 -3 8
15 39 33 28 32 -58 -5 -124 -54 -137 -61 -130 -72 4 -6 1 -7 -7 -2 -15 9 -149
-57 -257 -127 -23 -16 -44 -28 -47 -28 -12 0 -186 -123 -186 -131 0 -5 -5 -9
-11 -9 -11 0 -102 -70 -107 -83 -2 -4 -16 -20 -31 -35 -15 -15 -57 -60 -92
-101 -35 -41 -74 -85 -87 -98 -13 -13 -20 -28 -17 -33 3 -6 1 -10 -5 -10 -11
0 -64 -51 -104 -101 -10 -13 -37 -44 -60 -69 -23 -25 -70 -79 -106 -120 -36
-40 -74 -84 -85 -96 -11 -12 -45 -50 -75 -85 -30 -35 -63 -71 -72 -81 -23 -23
-23 -26 5 -31 16 -3 14 -5 -10 -6 -32 -1 -79 -44 -67 -62 3 -5 0 -8 -8 -7 -7
2 -12 -3 -10 -9 1 -7 -4 -13 -12 -13 -7 0 -31 -21 -52 -47 -21 -27 -47 -57
-59 -68 -11 -12 -40 -45 -65 -74 -25 -28 -62 -71 -82 -94 -20 -23 -34 -45 -32
-49 3 -4 -1 -8 -9 -8 -7 0 -26 -15 -42 -32 -16 -18 -46 -52 -67 -76 -21 -23
-36 -47 -33 -52 3 -6 -3 -10 -13 -10 -11 0 -27 -10 -35 -22 -8 -13 -41 -51
-74 -84 -160 -170 -175 -187 -161 -195 9 -6 7 -9 -8 -9 -13 0 -54 -37 -115
-102 -142 -155 -192 -209 -214 -233 -11 -11 -60 -66 -110 -120 -49 -55 -103
-113 -120 -131 -16 -17 -75 -80 -130 -140 -55 -60 -125 -135 -157 -168 -32
-32 -55 -63 -51 -69 3 -6 1 -7 -5 -3 -15 9 -114 -73 -105 -87 3 -6 1 -7 -4 -4
-9 6 -121 -68 -143 -93 -6 -7 -169 -108 -230 -142 -80 -45 -183 -96 -245 -119
-33 -13 -62 -26 -65 -29 -3 -3 -12 -6 -20 -7 -8 -1 -53 -14 -100 -29 -47 -14
-125 -35 -175 -45 -49 -11 -110 -24 -135 -29 -58 -13 -231 -28 -340 -30 -99
-2 -325 16 -390 30 -25 6 -83 17 -130 26 -47 9 -107 22 -135 30 -95 28 -270
87 -309 105 -22 9 -46 15 -54 11 -10 -3 -13 -1 -8 6 4 7 1 12 -6 12 -16 0
-174 81 -263 134 -33 20 -79 45 -102 56 -23 11 -43 24 -45 28 -2 4 -28 25 -58
47 -77 56 -93 69 -193 165 -49 47 -92 87 -96 90 -5 3 -13 15 -20 28 -6 12 -22
22 -34 23 -12 0 -16 3 -10 6 10 3 10 10 2 24 -5 11 -14 17 -20 14 -5 -4 -8 -3
-7 2 3 8 -41 84 -54 93 -12 9 -107 168 -123 206 -8 19 -19 34 -26 34 -7 0 -10
3 -7 6 6 5 -5 37 -42 120 -24 52 -48 116 -66 179 -9 28 -22 73 -30 100 -22 75
-65 314 -64 360 1 22 -2 66 -5 98 -6 53 -9 57 -33 58 l-27 2 26 4 c22 3 28 11
33 41 9 59 7 132 -5 132 -6 0 -4 7 5 15 8 8 17 34 21 58 3 23 7 58 10 77 5 40
28 140 43 188 6 17 8 32 5 32 -3 0 -1 6 4 13 5 6 18 35 28 62 10 28 31 78 47
113 16 35 33 73 39 85 5 12 18 37 29 55 11 19 19 41 18 50 -2 9 2 17 9 17 6 0
34 34 61 75 28 41 70 100 95 130 30 37 41 57 34 62 -8 5 -4 8 8 8 21 0 103 87
97 103 -1 5 2 6 7 3 4 -3 30 13 56 36 42 37 45 43 29 50 -15 7 -14 7 5 4 16
-3 35 3 55 20 17 13 36 28 42 33 6 5 26 17 45 26 19 10 36 21 39 26 3 4 50 30
105 58 109 55 234 102 335 127 36 8 85 20 110 27 27 6 141 11 285 11 237 -1
241 -1 354 -32 63 -17 118 -29 123 -26 4 3 8 0 8 -6 0 -6 4 -9 9 -6 13 8 42
-4 35 -15 -3 -5 2 -6 10 -3 9 3 16 2 16 -4 0 -5 11 -13 24 -16 27 -7 171 -86
234 -128 23 -16 46 -27 51 -23 5 3 13 0 17 -6 4 -8 3 -9 -4 -5 -7 4 -12 2 -12
-3 0 -6 4 -11 8 -11 8 0 46 -31 98 -80 12 -11 26 -20 31 -20 5 0 16 -11 23
-25 10 -18 16 -22 22 -13 5 9 8 8 8 -6 0 -10 20 -40 45 -68 57 -63 151 -205
190 -285 25 -51 34 -61 50 -57 17 4 18 3 4 -5 -15 -10 -14 -18 11 -93 18 -54
34 -84 46 -89 19 -7 19 -8 0 -8 -14 -1 -17 -6 -12 -23 19 -65 27 -146 26 -260
-1 -116 -11 -226 -24 -247 -6 -9 -17 -73 -19 -111 -1 -14 -10 -34 -19 -44 -10
-11 -18 -26 -18 -34 0 -17 -70 -159 -115 -230 -53 -86 -152 -195 -238 -262
-15 -12 -25 -25 -22 -30 3 -5 0 -12 -6 -16 -8 -5 -9 -3 -4 6 5 8 3 11 -6 8 -8
-3 -13 -10 -12 -16 2 -7 -4 -9 -14 -5 -12 5 -14 3 -8 -7 5 -8 4 -11 -2 -7 -5
3 -41 -10 -79 -30 -38 -19 -85 -41 -104 -48 -22 -9 -28 -14 -16 -14 11 -1 16
-4 12 -8 -10 -11 -56 -11 -50 -1 7 11 -4 10 -27 -3 -11 -6 -17 -15 -12 -22 5
-9 4 -9 -8 0 -9 7 -31 10 -57 6 -44 -6 -55 -18 -25 -27 14 -4 14 -4 -2 -3 -11
1 -27 -3 -35 -8 -13 -8 -13 -7 -1 8 12 15 10 17 -20 17 -26 0 -30 -3 -19 -10
9 -6 10 -10 3 -10 -6 0 -15 5 -18 10 -3 6 -45 10 -93 10 -48 0 -116 5 -152 11
-64 10 -216 55 -235 69 -5 4 -21 11 -34 15 -18 5 -22 4 -16 -5 5 -9 4 -11 -4
-6 -6 4 -9 12 -6 17 4 5 -1 9 -9 9 -8 0 -21 6 -28 13 -7 6 -30 21 -51 32 -20
11 -37 23 -37 27 0 3 -8 9 -18 12 -15 5 -116 102 -157 149 -62 73 -123 194
-145 285 -9 39 -16 52 -27 48 -9 -4 -11 -2 -6 7 4 6 8 68 9 137 0 85 6 142 17
179 20 65 20 64 4 55 -6 -4 -4 1 5 12 9 10 20 31 23 47 4 15 11 30 16 33 15 9
10 32 -8 37 -10 2 -8 3 4 2 21 -2 36 15 38 42 0 7 5 14 10 14 6 1 18 16 29 32
10 17 41 55 70 85 28 30 50 59 48 64 -1 5 2 7 7 4 5 -4 29 7 53 23 24 16 72
43 106 59 34 15 60 31 56 34 -3 3 0 9 7 14 8 5 10 3 4 -6 -6 -10 -1 -12 26 -6
92 20 170 26 233 20 49 -4 67 -3 62 5 -4 6 -1 11 8 11 20 0 29 -17 14 -24 -7
-4 -3 -4 9 -2 13 2 23 0 23 -5 0 -5 6 -9 13 -9 6 0 39 -14 72 -30 33 -16 66
-30 73 -30 7 0 11 -4 8 -9 -10 -15 60 -52 88 -47 15 3 24 1 21 -5 -4 -5 -15
-9 -26 -9 -18 0 -17 -5 14 -42 70 -88 99 -155 122 -289 14 -81 14 -97 0 -172
-8 -45 -28 -107 -43 -137 -31 -62 -106 -141 -151 -160 -17 -7 -31 -17 -31 -22
0 -5 -5 -6 -10 -3 -6 4 -16 2 -23 -3 -7 -6 -42 -16 -77 -22 -169 -29 -344 56
-420 204 -30 60 -33 73 -31 148 2 100 5 138 10 132 7 -7 62 86 56 96 -11 17 8
11 31 -11 l23 -22 -25 -33 c-32 -42 -64 -125 -64 -167 0 -18 9 -61 21 -96 25
-72 88 -141 166 -181 42 -22 61 -25 153 -25 92 0 111 3 155 25 72 36 156 125
196 207 32 65 33 74 34 183 0 106 -2 121 -30 185 -34 80 -39 88 -117 164 -68
67 -156 113 -264 141 -99 25 -161 25 -256 1 -120 -30 -199 -73 -281 -154 -101
-99 -147 -173 -193 -308 -25 -76 -28 -97 -28 -219 0 -122 3 -143 28 -219 47
-139 92 -210 202 -316 82 -80 200 -159 284 -190 25 -9 52 -20 61 -25 73 -39
348 -56 479 -31 299 58 552 262 701 564 22 45 45 90 50 99 9 17 43 138 61 218
14 60 14 363 0 420 -21 89 -50 189 -63 221 -27 65 -95 189 -134 246 -53 76
-214 237 -295 296 -36 26 -70 51 -76 56 -6 5 -26 17 -45 26 -19 10 -36 21 -39
24 -9 11 -133 69 -205 96 -77 29 -152 49 -265 72 -95 19 -386 22 -489 5 -95
-16 -243 -57 -298 -82 -24 -11 -45 -20 -49 -20 -12 0 -122 -56 -184 -93 -155
-93 -273 -198 -404 -356 -200 -241 -325 -506 -394 -831 -24 -115 -26 -144 -26
-355 0 -212 2 -240 27 -360 15 -71 32 -139 37 -150 5 -11 16 -47 25 -80 9 -33
20 -64 24 -70 4 -5 16 -32 26 -59 29 -80 149 -303 175 -326 3 -3 14 -18 23
-33 23 -35 36 -52 118 -146 129 -148 290 -289 457 -398 101 -66 320 -180 407
-212 33 -12 69 -26 80 -31 64 -28 273 -82 430 -111 125 -22 364 -31 527 -20
90 7 181 16 203 20 205 42 253 53 270 61 11 5 40 14 65 21 177 44 523 219 681
343 15 12 41 32 59 46 105 82 220 194 350 339 41 47 89 99 105 116 17 18 66
72 110 121 44 49 105 116 135 149 30 32 60 64 65 71 46 51 166 184 190 209 17
18 66 72 110 121 44 49 109 121 145 159 121 131 175 191 240 265 36 41 79 88
95 105 17 18 55 60 85 95 30 34 64 72 75 84 11 13 52 58 90 101 39 44 90 101
115 129 75 82 125 138 181 201 59 66 180 201 218 244 13 14 40 44 60 66 20 22
54 61 76 85 22 25 72 81 110 124 72 80 240 213 355 281 36 21 76 45 90 54 64
40 196 108 285 148 44 19 94 42 110 49 29 13 73 29 220 81 221 78 574 153 815
173 126 10 341 10 455 0z m-6765 -15 c169 -16 173 -17 305 -47 122 -27 248
-69 258 -85 5 -8 12 -11 17 -8 8 5 85 -24 123 -45 10 -6 48 -27 85 -47 76 -41
120 -70 143 -95 9 -10 19 -18 23 -18 15 0 178 -154 176 -166 -1 -5 5 -11 13
-14 8 -3 33 -30 56 -60 22 -30 44 -59 48 -65 22 -27 83 -125 83 -133 0 -5 7
-15 15 -22 18 -15 106 -196 109 -226 1 -13 8 -30 16 -39 7 -8 10 -18 6 -22 -3
-3 0 -13 8 -22 14 -17 45 -139 49 -193 1 -9 5 -14 9 -12 4 3 9 -9 10 -25 1
-17 3 -43 6 -58 11 -78 13 -385 2 -457 -12 -88 -52 -243 -75 -291 -59 -128
-91 -192 -101 -203 -7 -6 -16 -21 -19 -32 -3 -11 -10 -20 -14 -20 -4 0 -13
-12 -19 -26 -7 -14 -17 -22 -22 -19 -6 4 -9 1 -8 -6 2 -7 -2 -13 -9 -14 -6 0
-15 -4 -20 -9 -5 -5 -3 -6 5 -2 54 31 -98 -129 -183 -193 -22 -16 -51 -38 -65
-49 -39 -30 -160 -95 -160 -86 0 4 -6 1 -12 -8 -14 -18 -98 -54 -213 -92 -236
-79 -532 -103 -753 -61 -56 10 -98 22 -92 25 5 3 -5 6 -23 6 -65 0 -285 103
-372 174 -95 77 -248 267 -248 307 0 7 -4 13 -8 13 -18 0 -105 230 -114 302
-3 24 -10 79 -16 123 -14 104 2 362 21 350 4 -2 6 7 4 20 -1 14 2 25 6 25 5 0
7 10 5 22 -3 12 2 29 9 37 15 16 16 20 16 46 0 9 9 15 23 15 20 1 20 2 5 11
-25 14 -22 29 5 30 20 0 20 1 3 8 -19 7 -19 8 0 22 10 8 19 20 20 27 3 35 5
42 18 54 7 8 19 25 27 40 8 14 32 47 54 73 35 42 57 64 140 144 28 27 122 91
134 91 5 0 16 6 23 13 19 20 149 67 182 67 16 0 26 3 22 7 -15 15 151 42 262
42 86 1 137 -5 217 -24 57 -13 112 -28 122 -33 10 -5 48 -24 86 -42 79 -38
194 -126 175 -133 -8 -3 -5 -6 6 -6 35 -2 136 -133 136 -177 0 -8 4 -14 8 -14
7 0 47 -111 57 -157 2 -10 8 -38 13 -63 28 -125 25 -375 -4 -405 -10 -10 -11
-14 -2 -17 14 -5 -18 -110 -61 -197 -22 -47 -102 -139 -153 -178 -34 -26 -127
-65 -213 -90 -76 -22 -110 -27 -220 -27 -109 0 -142 3 -205 23 -124 38 -231
95 -300 158 -14 13 -28 23 -33 23 -4 0 -7 7 -5 16 2 10 -4 19 -12 21 -13 4
-13 3 0 -6 9 -6 10 -11 3 -11 -6 0 -25 17 -41 38 -81 101 -112 250 -92 433 6
57 16 112 22 124 6 11 11 22 10 25 -3 9 20 74 29 85 5 5 9 15 9 23 0 21 51 83
63 75 5 -3 7 -1 4 4 -4 6 -1 16 7 22 11 9 19 5 38 -17 13 -15 32 -31 42 -35
18 -7 18 -8 1 -27 -10 -11 -22 -17 -27 -14 -6 4 -5 -4 2 -16 7 -12 8 -20 3
-17 -11 7 -36 -33 -52 -85 -7 -21 -17 -38 -22 -38 -6 0 -7 5 -4 10 7 12 -2 12
-30 1 -17 -7 -16 -9 12 -15 30 -7 32 -9 21 -29 -8 -14 -12 -69 -12 -152 0
-119 2 -135 27 -194 20 -48 24 -67 16 -78 -9 -9 -8 -13 0 -13 6 0 11 5 11 11
0 6 28 -19 63 -54 60 -61 147 -120 212 -144 110 -41 264 -52 384 -27 25 5 32
4 26 -5 -5 -9 0 -12 16 -9 14 2 23 9 21 17 -5 21 19 31 58 26 24 -4 29 -3 16
3 -17 7 -13 12 25 35 24 14 56 37 71 51 28 27 44 34 32 14 -4 -7 -3 -8 5 -4 6
4 9 12 5 17 -3 6 5 21 19 34 27 27 87 143 87 168 0 9 4 18 9 21 20 12 34 174
27 298 -4 68 -8 134 -9 148 -1 14 -6 30 -13 35 -6 6 -16 30 -23 55 -7 25 -22
60 -33 78 -17 28 -18 35 -6 49 9 12 9 15 1 9 -8 -4 -23 4 -39 21 -73 78 -91
95 -108 105 -13 7 -15 12 -7 17 7 5 -4 12 -28 20 -22 6 -43 17 -47 23 -5 8 -1
9 12 5 18 -7 18 -6 -1 8 -11 9 -25 13 -32 11 -7 -3 -13 -2 -13 2 0 4 -12 9
-27 10 -15 1 -30 8 -35 15 -4 6 -8 8 -8 4 0 -11 -43 13 -54 31 -6 10 -11 11
-15 3 -5 -8 -17 -8 -42 -1 -18 6 -60 11 -91 12 -32 0 -58 5 -58 11 0 6 -22 7
-57 3 -32 -4 -65 -7 -73 -7 -41 0 -258 -44 -253 -52 3 -5 -4 -6 -17 -2 -15 5
-20 4 -16 -3 4 -7 -10 -16 -33 -23 -22 -7 -38 -15 -36 -19 2 -4 -13 -15 -35
-25 -21 -10 -55 -33 -76 -51 -20 -19 -40 -34 -44 -34 -4 0 -18 -16 -31 -35
-13 -19 -27 -35 -31 -35 -3 0 -17 -17 -29 -37 -13 -21 -29 -44 -36 -51 -7 -7
-13 -20 -13 -28 0 -8 -4 -14 -9 -14 -4 0 -16 -20 -25 -44 -9 -24 -24 -47 -32
-50 -8 -3 -13 -10 -9 -16 3 -5 -1 -23 -10 -40 -8 -16 -13 -30 -11 -30 3 0 0
-13 -5 -29 -7 -21 -15 -28 -28 -24 -11 3 -22 0 -25 -5 -4 -6 2 -8 14 -5 16 4
20 0 20 -20 0 -14 -4 -28 -9 -31 -4 -3 -6 -17 -3 -31 4 -22 1 -25 -24 -26 -24
-1 -25 -2 -6 -6 18 -4 22 -11 22 -38 0 -29 4 -34 28 -38 15 -3 3 -4 -25 -2
-29 1 -53 -1 -53 -6 0 -5 10 -9 23 -9 21 0 22 -4 24 -83 3 -101 21 -213 39
-249 8 -16 12 -28 10 -28 -11 0 66 -184 84 -200 3 -3 14 -22 24 -42 11 -21 23
-38 28 -38 5 0 6 -5 3 -10 -4 -6 -11 -7 -17 -4 -7 5 -8 2 -4 -5 5 -7 14 -10
21 -8 7 3 29 -17 50 -44 20 -27 43 -49 51 -49 8 0 14 -5 14 -12 0 -7 12 -23
28 -36 25 -22 26 -23 4 -19 -13 3 -20 1 -16 -5 3 -5 15 -8 25 -5 11 3 40 -10
74 -34 30 -21 55 -36 55 -33 0 3 15 -3 33 -13 93 -55 294 -104 402 -98 42 2
51 0 30 -5 l-30 -8 35 -2 35 -3 -35 -7 c-23 -4 -3 -7 60 -7 65 0 86 3 65 8
-23 7 -20 7 16 4 27 -2 51 1 57 7 7 7 20 12 29 13 84 7 151 20 223 41 91 28
162 55 170 65 3 3 12 6 21 6 9 0 47 16 85 35 53 27 78 34 105 31 20 -3 39 0
43 5 3 6 -8 8 -29 5 -19 -3 -35 -2 -35 0 0 8 94 62 103 59 4 -1 7 6 7 15 0 15
2 16 10 3 6 -9 10 -10 10 -3 0 13 12 26 60 63 69 54 131 128 194 234 52 85
116 218 116 239 0 7 4 17 9 23 17 17 55 228 59 327 l3 97 27 1 27 2 -27 4
c-27 4 -28 7 -28 61 0 31 -7 92 -15 135 -21 110 -21 110 19 105 19 -2 32 0 30
4 -3 4 -21 8 -40 8 -25 0 -34 4 -34 16 0 27 -69 225 -101 288 -16 33 -29 63
-29 67 0 18 -82 147 -131 207 -8 9 -7 17 2 28 11 13 10 15 -4 12 -15 -3 -107
85 -107 104 0 4 -3 8 -7 8 -5 0 -31 22 -59 48 -59 55 -85 76 -139 116 -22 17
-43 35 -47 40 -5 7 -8 7 -8 1 0 -5 -7 -1 -16 10 -8 11 -18 20 -22 21 -24 3
-62 26 -57 34 3 6 -1 7 -9 4 -9 -3 -16 -1 -16 5 0 6 -7 11 -15 11 -23 0 -95
31 -91 39 3 4 -5 8 -17 8 -12 1 -23 7 -25 13 -2 5 -15 10 -29 10 -23 0 -24 2
-12 18 11 14 11 15 -1 5 -17 -15 -50 -17 -50 -3 0 6 -11 10 -25 10 -14 0 -25
4 -25 9 0 5 -10 7 -22 3 -11 -3 -19 -1 -16 4 4 5 -14 9 -38 10 -24 0 -50 6
-58 13 -19 16 -70 20 -316 26 -330 8 -505 -23 -840 -148 -47 -17 -87 -34 -90
-37 -3 -3 -39 -23 -80 -44 -41 -21 -80 -46 -86 -54 -7 -9 -16 -12 -24 -7 -9 5
-11 4 -6 -3 4 -7 3 -12 -2 -12 -6 0 -32 -18 -58 -40 -27 -22 -52 -40 -57 -40
-5 0 -20 -13 -34 -30 -13 -16 -35 -30 -46 -30 -13 0 -17 -3 -11 -8 8 -4 -16
-37 -67 -92 -44 -47 -77 -91 -74 -97 2 -7 -1 -13 -8 -13 -28 -1 -204 -290
-190 -313 3 -6 1 -7 -5 -3 -7 4 -12 2 -12 -4 0 -6 -4 -9 -8 -6 -5 3 -9 0 -9
-7 0 -7 -16 -51 -35 -99 -30 -75 -33 -88 -19 -91 12 -3 10 -5 -4 -6 -22 -1
-21 -1 -64 -166 -12 -44 -26 -99 -32 -122 -10 -36 -16 -43 -38 -44 l-26 -2 28
-4 c24 -4 40 -23 19 -23 -9 0 -10 -23 -14 -347 -2 -144 -1 -260 2 -257 2 3 10
-28 16 -68 23 -155 73 -343 130 -488 41 -104 166 -354 185 -370 15 -12 29 -51
23 -62 -4 -7 -3 -8 4 -4 7 4 23 -11 39 -36 15 -24 32 -46 37 -49 5 -4 6 -11 2
-17 -3 -6 -1 -14 5 -18 8 -4 9 -3 5 4 -4 7 -3 12 3 12 5 0 11 -7 13 -15 6 -26
163 -205 185 -211 13 -3 21 -10 18 -14 -3 -5 3 -16 12 -26 10 -10 18 -25 18
-33 0 -9 9 -17 20 -19 16 -4 92 -60 193 -143 7 -5 28 -17 47 -25 19 -8 35 -18
35 -23 0 -16 307 -181 337 -181 7 0 16 -7 19 -15 5 -12 9 -13 20 -4 11 9 13 9
9 -2 -3 -9 2 -14 17 -15 29 -1 117 -23 140 -35 36 -18 266 -69 363 -79 55 -7
107 -15 115 -19 35 -17 395 -11 575 10 178 20 205 25 339 54 50 10 72 12 77 4
4 -6 16 -8 28 -4 12 3 19 10 16 15 -6 9 32 25 100 41 28 7 56 16 63 22 8 6 12
6 12 -2 0 -6 7 -11 15 -11 8 0 15 6 15 13 0 15 94 50 98 37 6 -17 20 -11 18 8
0 9 6 17 14 18 41 1 290 111 290 127 0 6 7 2 16 -9 8 -10 12 -13 9 -6 -5 9 1
15 14 19 12 3 21 9 21 13 0 5 19 18 43 29 56 27 249 150 282 179 14 12 30 22
35 22 6 0 19 9 29 19 11 11 29 25 41 31 12 6 19 18 16 25 -3 9 0 12 8 9 7 -3
37 21 67 55 29 33 57 57 63 54 5 -3 6 -1 2 6 -5 7 1 20 13 30 12 10 21 21 21
23 0 3 35 41 78 85 43 44 76 85 74 91 -2 7 3 12 12 12 8 0 19 7 23 15 5 8 28
35 51 60 26 26 40 49 36 56 -4 7 -3 9 3 6 6 -4 32 17 59 46 62 67 161 184 166
196 1 5 10 11 18 13 8 2 19 12 25 23 6 11 18 20 26 19 8 -1 16 8 16 18 1 11
22 41 46 67 94 98 107 112 107 121 0 6 5 10 11 10 5 0 7 -6 4 -12 -4 -7 0 -4
9 6 8 10 13 23 10 27 -3 5 3 6 12 2 12 -4 15 -3 10 5 -4 6 1 20 11 30 27 28
94 103 130 144 19 23 34 32 37 25 2 -7 5 -4 5 6 1 9 13 30 29 47 15 16 59 64
97 107 99 109 168 180 159 164 -5 -10 -3 -12 5 -7 7 5 10 14 7 21 -2 7 5 22
17 32 12 11 53 55 91 97 43 47 76 76 90 77 17 0 18 2 4 7 -14 6 -7 17 40 68
80 86 151 166 191 213 19 23 40 41 47 41 8 0 14 5 14 11 0 11 112 144 140 166
8 6 15 17 15 25 0 7 10 12 22 11 15 -2 21 2 17 10 -6 16 55 79 69 70 5 -3 7
-1 4 4 -9 14 32 65 45 57 7 -4 8 -2 4 5 -8 12 38 63 67 74 9 3 16 10 15 14 -2
5 18 34 45 67 26 32 47 55 47 51 0 -4 10 5 22 21 12 16 29 34 38 40 8 7 39 35
68 63 29 28 57 51 62 51 5 0 13 6 17 13 13 20 173 137 173 127 0 -6 4 -10 10
-10 5 0 9 6 7 13 -1 6 4 11 11 10 6 -2 12 3 12 11 0 8 9 18 20 21 11 3 20 10
20 15 0 5 7 7 15 4 8 -4 15 -1 15 5 0 6 21 21 48 34 26 12 50 26 54 32 4 5 24
9 45 8 21 -1 29 1 18 4 -28 7 -42 22 -19 21 18 -2 87 27 177 72 20 10 37 15
37 9 0 -5 15 -9 33 -8 29 1 30 2 7 8 -22 6 -18 9 35 28 71 25 187 62 212 66
10 2 53 10 95 17 42 8 75 16 73 19 -2 4 9 7 23 7 15 1 92 7 172 14 163 14 444
7 555 -14 11 -2 44 -7 73 -11 32 -5 56 -14 59 -22 3 -8 9 -10 12 -5 10 16 141
-7 141 -25 0 -10 5 -11 16 -5 17 10 32 7 129 -29 33 -12 70 -21 83 -21 24 0
30 -13 10 -22 -7 -3 0 -4 15 -1 31 6 97 -20 97 -39 0 -8 2 -8 8 0 5 8 26 3 69
-19 34 -16 60 -33 58 -37 -3 -5 3 -11 12 -14 9 -4 20 -1 24 5 5 8 15 4 34 -15
15 -15 29 -25 32 -22 8 8 61 -22 73 -41 9 -14 12 -15 17 -4 3 7 8 9 12 4 3 -5
38 -28 76 -52 39 -24 74 -50 78 -58 5 -7 12 -11 16 -8 5 2 15 -2 22 -11 7 -8
25 -22 41 -30 16 -8 26 -19 23 -24 -4 -6 0 -10 8 -10 19 0 148 -120 142 -130
-3 -5 0 -12 6 -16 8 -5 10 -2 5 7 -8 14 87 -82 114 -117 36 -45 61 -84 54 -84
-4 0 6 -11 24 -23 17 -13 29 -26 26 -29 -2 -3 11 -26 31 -52 19 -25 35 -50 35
-54 0 -4 9 -18 20 -32 13 -17 15 -28 9 -36 -7 -9 -5 -14 8 -19 21 -7 56 -59
72 -108 7 -20 19 -41 27 -47 7 -7 14 -19 14 -26 0 -7 11 -37 24 -66 13 -29 27
-64 31 -78 4 -14 13 -38 21 -55 14 -33 55 -178 58 -211 1 -11 5 -24 8 -30 13
-23 17 -45 8 -39 -6 3 -10 2 -10 -4 0 -5 5 -13 11 -17 6 -3 9 -22 7 -40 -2
-19 0 -34 4 -34 5 0 8 -15 8 -32 0 -18 4 -55 9 -83 15 -76 14 -235 -1 -235
-10 0 -10 -2 0 -9 11 -6 11 -21 3 -67 -5 -32 -12 -86 -16 -119 -7 -66 -24
-143 -53 -250 -29 -109 -97 -275 -114 -283 -5 -2 -8 -9 -8 -16 0 -16 -52 -120
-62 -124 -4 -2 -8 -8 -8 -14 0 -6 -15 -31 -33 -57 -18 -25 -36 -54 -40 -63 -3
-10 -11 -18 -16 -18 -5 0 -12 -8 -16 -19 -3 -10 -16 -30 -28 -44 -12 -15 -33
-41 -47 -58 -14 -18 -35 -42 -47 -54 -13 -12 -23 -26 -23 -30 0 -13 -42 -45
-68 -52 -14 -3 -19 -8 -13 -13 19 -11 -53 -77 -84 -77 -15 0 -32 -6 -38 -12
-9 -10 -6 -10 16 -2 37 14 35 -3 -3 -26 -17 -10 -28 -23 -26 -30 3 -7 -1 -10
-8 -7 -8 3 -17 1 -21 -5 -3 -6 -23 -11 -43 -12 -24 0 -31 -3 -20 -7 28 -11 5
-31 -92 -79 -19 -9 -44 -24 -54 -33 -11 -8 -16 -10 -12 -2 10 17 2 15 -24 -8
-13 -11 -34 -20 -47 -20 -12 0 -22 -5 -21 -11 3 -12 -80 -41 -94 -33 -4 3 -8
1 -8 -3 0 -15 -88 -42 -126 -38 -21 2 -32 0 -25 -4 33 -21 -215 -58 -403 -60
-96 -2 -120 1 -143 16 -15 10 -24 12 -20 6 10 -16 -30 -17 -93 -2 -47 12 -155
36 -202 46 -31 6 -38 23 -10 24 11 0 12 2 4 6 -7 3 -19 0 -26 -6 -10 -8 -24
-6 -56 8 l-42 19 23 16 c13 9 18 16 12 16 -6 0 -16 -7 -23 -15 -13 -16 -46
-20 -52 -7 -4 10 -75 42 -94 42 -8 0 -17 7 -20 15 -3 8 -21 20 -40 27 -35 13
-43 23 -21 31 6 2 -3 4 -22 5 -34 1 -85 37 -75 53 3 5 -4 9 -15 9 -12 0 -30 8
-40 17 -10 10 -31 28 -46 40 -14 13 -24 27 -20 33 3 5 -2 10 -13 10 -20 0 -76
52 -67 63 3 4 3 5 0 3 -7 -4 -65 46 -65 56 0 5 6 8 14 8 20 0 29 17 15 26 -8
4 -9 3 -5 -4 5 -8 -1 -12 -14 -12 -20 0 -50 26 -80 70 -8 12 -22 32 -31 44 -9
11 -19 31 -23 43 -4 11 -14 24 -22 27 -8 3 -12 10 -9 16 3 5 2 10 -3 10 -9 0
-63 102 -66 126 -1 6 -7 18 -14 26 -6 8 -13 23 -15 34 -1 10 -5 24 -8 29 -4 6
-14 36 -24 68 -16 50 -16 60 -4 69 11 8 10 9 -4 4 -14 -4 -17 0 -17 22 1 15
-4 50 -9 77 -5 28 -10 85 -10 128 -1 80 0 81 46 78 11 -1 24 2 27 7 4 6 -10 9
-35 6 l-42 -4 6 89 c8 104 20 168 54 273 13 43 21 83 17 89 -4 8 -3 9 5 5 6
-4 14 0 17 11 44 131 201 364 242 358 9 -1 11 0 5 2 -7 3 -13 6 -13 8 0 6 60
63 117 112 32 26 61 53 65 58 4 6 8 6 8 1 0 -5 6 -4 13 2 41 34 154 87 255
118 103 33 133 38 257 43 96 4 164 2 215 -7 41 -7 86 -15 100 -17 14 -2 26 -4
28 -5 1 -2 5 -3 10 -4 44 -10 160 -51 172 -61 8 -7 27 -16 42 -20 15 -4 30
-16 34 -27 3 -11 12 -17 20 -14 20 8 44 -4 44 -21 0 -8 6 -13 13 -10 39 13
228 -184 298 -311 20 -37 21 -45 9 -54 -13 -8 -12 -9 1 -5 19 6 48 -62 70
-163 17 -73 16 -291 0 -360 -43 -183 -143 -361 -221 -394 -19 -8 -29 -15 -22
-15 6 -1 12 -6 12 -11 0 -6 -3 -9 -7 -9 -5 1 -19 0 -33 -1 -18 -2 -20 -4 -7
-7 9 -2 17 -8 16 -11 -2 -24 -258 -156 -283 -146 -9 3 -16 1 -16 -5 0 -6 -9
-11 -21 -11 -13 0 -18 4 -13 13 5 7 1 6 -10 -3 -10 -8 -30 -17 -45 -19 -68
-14 -298 6 -325 27 -6 5 -22 13 -36 17 -25 7 -115 60 -136 80 -6 5 -30 27 -53
48 -43 39 -116 142 -126 180 -6 21 -9 30 -35 92 -7 17 -15 67 -18 113 -4 75
-3 82 14 83 18 1 18 1 0 6 -17 4 -18 13 -13 76 2 39 10 73 16 75 6 2 11 12 11
22 0 10 5 31 12 47 6 15 12 30 12 33 2 8 48 72 70 98 36 40 138 103 158 96 14
-4 16 -1 11 13 -3 10 -3 15 1 11 4 -3 22 0 39 7 49 20 134 26 215 16 83 -10
90 -14 72 -36 -8 -10 -9 -15 -1 -15 6 0 11 5 11 10 0 17 39 11 60 -10 11 -11
26 -17 35 -14 8 4 15 1 15 -5 0 -6 6 -11 13 -11 19 0 79 -64 75 -81 -2 -7 6
-15 18 -17 20 -3 40 -30 46 -62 2 -8 8 -19 15 -25 43 -37 42 -281 -2 -335 -7
-8 -15 -23 -18 -32 -3 -9 -14 -15 -24 -14 -10 2 -12 1 -5 -1 6 -3 12 -8 12
-13 0 -13 -33 -21 -44 -10 -5 5 -17 10 -26 10 -9 0 -27 11 -39 24 -19 20 -20
24 -6 29 8 4 20 18 27 32 6 14 17 25 23 25 7 0 19 8 26 18 13 15 12 16 -4 3
-22 -18 -34 -7 -16 15 8 10 13 44 14 92 0 108 -33 173 -130 250 -38 32 -139
62 -204 62 -64 0 -201 -41 -201 -59 0 -9 -51 -35 -62 -33 -4 1 -5 -5 -2 -13 4
-8 2 -15 -3 -15 -13 0 -67 -85 -91 -141 -26 -59 -32 -92 -34 -164 -1 -85 10
-129 55 -219 36 -70 58 -97 138 -167 10 -9 16 -19 13 -22 -3 -3 8 -8 25 -12
17 -4 37 -15 44 -26 8 -10 16 -16 19 -14 3 3 30 -3 59 -14 78 -28 96 -30 201
-32 77 -1 107 4 166 24 40 14 72 22 72 18 0 -3 4 -1 8 4 8 12 39 32 69 45 12
5 55 41 94 80 39 38 77 70 83 70 6 0 4 5 -4 10 -13 8 -12 10 4 10 11 0 17 3
14 6 -4 3 14 44 38 91 24 47 46 100 50 119 3 19 9 34 13 34 8 0 8 -1 16 140 4
66 3 127 -5 165 -6 33 -12 70 -13 83 -1 12 -5 22 -9 22 -5 0 -8 6 -8 13 0 14
-64 150 -80 170 -5 6 -30 38 -55 69 -25 32 -71 78 -103 104 -31 26 -56 51 -54
56 1 5 -1 7 -6 4 -5 -3 -24 5 -43 16 -62 39 -164 88 -182 88 -10 0 -16 3 -14
8 3 4 -5 8 -16 9 -42 3 -142 30 -130 34 26 9 -157 7 -256 -2 -126 -12 -253
-53 -359 -115 -42 -25 -85 -53 -94 -61 -9 -8 -22 -12 -28 -8 -6 3 -9 2 -8 -3
2 -5 -24 -35 -57 -68 -93 -90 -191 -219 -226 -296 -6 -15 -16 -25 -22 -21 -6
3 -7 2 -4 -4 9 -14 -30 -109 -43 -105 -6 1 -9 -2 -5 -7 8 -13 -5 -62 -15 -56
-4 2 -5 -7 -2 -20 4 -21 1 -24 -14 -19 -15 4 -16 4 -5 -4 9 -7 12 -19 7 -38
-12 -49 -25 -126 -31 -187 -4 -34 -10 -55 -16 -51 -7 4 -7 0 -1 -12 6 -11 15
-69 21 -130 5 -60 19 -145 31 -188 11 -43 19 -84 17 -90 -2 -6 3 -17 10 -24
11 -12 11 -17 1 -30 -8 -9 -8 -13 -2 -9 16 9 36 -17 40 -50 1 -15 10 -30 18
-35 9 -5 16 -18 16 -28 0 -11 5 -20 10 -20 6 0 10 -9 10 -20 0 -11 4 -20 8
-20 5 0 19 -19 32 -42 13 -23 34 -52 47 -64 13 -12 23 -26 23 -33 0 -6 5 -11
10 -11 6 0 15 -10 21 -23 6 -12 35 -43 65 -67 29 -25 54 -51 54 -57 0 -7 4
-13 10 -13 9 0 80 -49 120 -83 50 -42 276 -157 350 -178 25 -7 50 -16 55 -20
16 -12 256 -59 299 -59 20 0 36 -3 36 -7 0 -16 281 6 404 32 68 14 139 25 157
26 25 0 29 2 15 8 -15 6 -10 10 25 20 24 7 64 22 89 33 24 11 54 21 66 22 12
0 20 4 18 7 -2 3 16 16 39 29 48 26 123 76 182 120 22 16 47 33 55 37 8 4 21
15 28 25 7 10 23 18 35 19 12 0 16 3 9 6 -15 6 75 102 96 103 6 0 11 3 10 8
-4 11 96 132 109 132 7 0 10 7 7 15 -4 9 4 25 18 38 13 12 27 30 31 40 3 9 11
17 18 17 6 0 9 7 5 15 -3 8 -1 15 4 15 5 0 12 11 16 25 3 14 9 25 13 25 3 0
17 24 31 53 13 28 30 56 37 60 7 4 13 17 13 28 0 11 6 22 13 24 6 3 13 19 13
37 1 17 8 36 15 42 8 6 15 22 17 35 1 14 10 34 20 45 9 11 11 16 5 12 -17 -10
-16 3 3 39 9 17 18 41 20 55 4 21 10 47 19 83 2 4 3 14 4 22 0 8 9 16 19 16
16 1 16 2 0 6 -13 3 -15 10 -9 26 5 12 12 49 16 82 4 33 12 66 18 74 9 11 9
13 0 8 -15 -9 -4 75 11 85 8 5 7 8 -1 8 -10 0 -13 32 -13 128 0 70 -7 172 -15
227 -16 112 -53 285 -65 300 -16 22 -21 68 -8 76 10 7 10 9 -3 9 -8 0 -23 19
-33 43 -10 23 -29 66 -42 95 -12 28 -21 52 -18 52 3 0 0 6 -6 13 -6 6 -36 55
-67 107 -31 52 -65 107 -77 121 -12 15 -30 39 -41 55 -11 15 -27 35 -35 44 -8
9 -27 31 -41 50 -30 40 -173 182 -207 206 -12 8 -19 21 -16 27 4 7 4 9 -1 5
-11 -10 -126 82 -118 95 3 6 1 7 -5 3 -7 -4 -12 -2 -12 4 0 6 -4 9 -8 6 -12
-7 -103 60 -94 69 4 5 1 5 -6 1 -7 -5 -21 -2 -30 7 -39 33 -290 163 -352 182
-14 4 -29 11 -35 15 -5 4 -40 17 -78 30 -41 13 -65 26 -61 32 4 6 2 8 -4 4 -5
-3 -48 3 -94 15 -110 28 -191 44 -318 65 -125 20 -469 24 -570 6 -36 -6 -110
-18 -165 -27 -55 -9 -114 -21 -132 -27 -25 -9 -35 -9 -50 3 -16 12 -17 12 -6
-2 11 -14 6 -17 -45 -29 -31 -7 -61 -15 -67 -19 -5 -4 -28 -13 -50 -19 -46
-15 -109 -41 -213 -89 -40 -18 -77 -33 -82 -33 -6 0 -10 -4 -10 -8 0 -5 -19
-16 -42 -26 -24 -11 -51 -25 -60 -33 -9 -8 -22 -12 -29 -7 -7 4 -10 3 -5 -4 3
-6 -3 -13 -14 -17 -11 -3 -20 -11 -20 -16 0 -5 -7 -9 -16 -9 -9 0 -12 5 -8 12
4 7 3 8 -5 4 -6 -4 -9 -11 -6 -15 2 -5 -14 -21 -38 -37 -23 -16 -61 -44 -84
-62 -24 -19 -43 -32 -43 -30 0 2 -21 -15 -46 -39 -26 -23 -50 -40 -55 -37 -5
3 -8 2 -7 -3 4 -11 -134 -148 -144 -145 -5 1 -7 -1 -6 -6 5 -15 -35 -63 -49
-58 -8 3 -12 2 -9 -3 8 -13 -34 -62 -46 -55 -7 4 -8 2 -4 -4 4 -6 -7 -26 -25
-44 -17 -18 -48 -53 -68 -78 -20 -25 -39 -46 -43 -48 -4 -2 -26 -27 -49 -55
-22 -28 -52 -59 -66 -68 -13 -9 -25 -20 -26 -25 -1 -5 -6 -8 -10 -6 -5 1 -6
-2 -3 -7 4 -6 -8 -25 -26 -43 -18 -18 -51 -55 -72 -81 -29 -35 -45 -47 -58
-43 -16 4 -17 2 -7 -10 11 -13 5 -19 -16 -14 -5 1 -7 -2 -3 -6 8 -8 -15 -42
-64 -95 -18 -19 -64 -71 -103 -114 -38 -43 -77 -86 -85 -95 -8 -9 -46 -52 -85
-96 -38 -43 -87 -98 -108 -120 -21 -23 -44 -50 -51 -59 -8 -11 -18 -15 -26
-10 -9 6 -11 4 -5 -4 9 -15 -33 -63 -48 -54 -6 3 -7 1 -3 -5 4 -7 -8 -26 -26
-45 -18 -19 -53 -56 -77 -83 -40 -44 -204 -224 -241 -264 -8 -9 -58 -63 -110
-120 -130 -142 -130 -141 -140 -135 -5 3 -8 0 -5 -7 3 -7 -19 -38 -48 -69 -74
-80 -226 -245 -278 -304 -46 -52 -80 -81 -90 -78 -4 1 -6 -4 -5 -11 0 -8 -34
-52 -77 -99 -61 -66 -83 -84 -100 -81 -18 4 -19 3 -4 -4 16 -7 13 -12 -25 -45
-107 -91 -192 -147 -212 -141 -14 3 -17 2 -8 -4 16 -11 6 -20 -48 -47 -19 -10
-37 -21 -40 -24 -7 -10 -121 -72 -238 -131 -78 -39 -107 -49 -133 -45 -26 4
-28 3 -9 -3 23 -7 21 -9 -27 -30 -29 -12 -54 -22 -58 -22 -3 0 -27 -10 -53
-21 -25 -12 -56 -22 -69 -23 -13 0 -23 -4 -23 -8 0 -5 -9 -8 -19 -8 -11 0 -23
-5 -27 -11 -4 -6 -19 -9 -38 -5 -17 3 -25 2 -18 -2 18 -12 -249 -90 -328 -95
-14 -1 -27 -5 -30 -8 -5 -6 -173 -35 -290 -50 -126 -16 -433 -22 -565 -10
-146 12 -265 32 -265 43 0 4 -6 5 -14 2 -8 -3 -41 0 -73 6 -81 16 -94 20 -88
30 3 4 -3 6 -13 3 -20 -5 -203 52 -287 90 -120 54 -282 137 -302 157 -13 11
-23 18 -23 15 0 -9 -106 63 -204 138 -45 35 -57 48 -51 58 4 5 0 6 -8 3 -19
-7 -260 232 -251 248 4 6 3 8 -3 5 -11 -7 -102 105 -169 208 -21 33 -42 62
-45 65 -3 3 -14 21 -24 40 -10 19 -21 37 -24 40 -8 7 -131 254 -131 264 0 4
-7 22 -15 39 -20 44 -71 200 -90 277 -31 123 -64 335 -53 339 6 2 5 7 -3 12
-10 6 -9 12 6 29 15 17 16 20 3 15 -24 -9 -32 77 -24 244 4 75 7 143 7 151 1
33 41 267 50 295 6 17 13 44 15 60 9 53 34 133 47 147 6 7 13 26 14 41 1 16 8
36 15 44 6 8 13 24 15 34 2 11 10 36 20 57 9 20 17 40 17 44 1 4 7 13 14 19 6
7 12 20 12 30 0 9 11 33 25 53 14 20 25 41 25 46 0 5 9 15 20 23 11 8 17 17
13 20 -9 9 39 76 58 82 10 4 15 13 12 23 -2 10 4 27 14 39 10 12 25 31 33 42
8 12 20 21 26 21 7 0 14 10 18 23 8 33 118 147 141 147 16 0 17 2 5 10 -16 10
-21 5 118 123 68 57 86 68 94 56 8 -11 9 -11 5 3 -4 12 16 29 78 67 111 69
254 135 285 133 18 -1 21 1 11 7 -17 11 37 25 84 23 22 -2 26 0 16 7 -40 26
387 104 594 110 22 0 110 -6 195 -14z m6678 -52 c-10 -2 -28 -2 -40 0 -13 2
-5 4 17 4 22 1 32 -1 23 -4z m-543 -33 c-3 -5 -15 -10 -25 -10 -10 0 -25 -6
-32 -13 -8 -9 -21 -11 -33 -6 -17 6 -15 8 13 14 18 4 35 12 38 16 3 5 14 9 25
9 11 0 17 -4 14 -10z m268 3 c-13 -2 -33 -2 -45 0 -13 2 -3 4 22 4 25 0 35 -2
23 -4z m255 0 c-16 -2 -40 -2 -55 0 -16 2 -3 4 27 4 30 0 43 -2 28 -4z m162
-3 c0 -13 -11 -13 -30 0 -12 8 -11 10 8 10 12 0 22 -4 22 -10z m-547 -7 c-7
-2 -21 -2 -30 0 -10 3 -4 5 12 5 17 0 24 -2 18 -5z m247 -18 c11 -13 8 -15
-16 -14 -17 1 -22 3 -11 6 9 2 15 9 12 14 -10 15 1 10 15 -6z m353 8 c-7 -2
-21 -2 -30 0 -10 3 -4 5 12 5 17 0 24 -2 18 -5z m-980 -10 c-7 -2 -19 -2 -25
0 -7 3 -2 5 12 5 14 0 19 -2 13 -5z m317 -3 c0 -5 -2 -10 -4 -10 -3 0 -8 5
-11 10 -3 6 -1 10 4 10 6 0 11 -4 11 -10z m35 0 c3 -5 1 -10 -4 -10 -6 0 -11
5 -11 10 0 6 2 10 4 10 3 0 8 -4 11 -10z m470 -5 c6 -2 -33 -3 -85 -3 -52 0
-84 3 -70 7 23 6 134 4 155 -4z m212 9 c-3 -3 -12 -4 -19 -1 -8 3 -5 6 6 6 11
1 17 -2 13 -5z m126 -1 c-7 -2 -19 -2 -25 0 -7 3 -2 5 12 5 14 0 19 -2 13 -5z
m-1048 -13 c3 -6 -1 -7 -9 -4 -18 7 -21 14 -7 14 6 0 13 -4 16 -10z m418 3
c-7 -2 -19 -2 -25 0 -7 3 -2 5 12 5 14 0 19 -2 13 -5z m692 -13 c3 -5 -1 -10
-9 -10 -9 0 -16 5 -16 10 0 6 4 10 9 10 6 0 13 -4 16 -10z m-1244 -28 c-7 -2
-18 1 -23 6 -8 8 -4 9 13 5 13 -4 18 -8 10 -11z m66 12 c-3 -3 -12 -4 -19 -1
-8 3 -5 6 6 6 11 1 17 -2 13 -5z m-127 -14 c8 -5 11 -10 5 -10 -5 0 -17 5 -25
10 -8 5 -10 10 -5 10 6 0 17 -5 25 -10z m1240 -20 c0 -4 -7 -11 -16 -14 -13
-5 -14 -4 -6 7 7 8 8 18 4 22 -4 5 -1 5 6 1 6 -4 12 -11 12 -16z m-1353 -5 c0
-17 -13 -20 -21 -6 -4 5 0 12 6 14 7 3 13 6 14 6 0 1 1 -6 1 -14z m-112 -5
c-3 -5 -12 -10 -18 -10 -7 0 -6 4 3 10 19 12 23 12 15 0z m65 -8 c0 -5 -7 -9
-15 -9 -8 0 -12 4 -9 9 3 4 9 8 15 8 5 0 9 -4 9 -8z m-41 -16 c-10 -10 -59
-14 -54 -5 4 5 10 7 14 5 4 -3 13 -1 21 4 14 8 28 5 19 -4z m1806 -24 c-3 -3
-11 0 -18 7 -9 10 -8 11 6 5 10 -3 15 -9 12 -12z m-7858 2 c-3 -3 -12 -4 -19
-1 -8 3 -5 6 6 6 11 1 17 -2 13 -5z m5933 -14 c-20 -13 -33 -13 -25 0 3 6 14
10 23 10 15 0 15 -2 2 -10z m-40 -5 c0 -2 -9 -9 -20 -15 -12 -6 -20 -7 -20 -1
0 5 8 12 18 14 9 3 18 5 20 6 1 0 2 -1 2 -4z m1827 -11 c-3 -3 -12 -4 -19 -1
-8 3 -5 6 6 6 11 1 17 -2 13 -5z m-8072 -14 c-3 -5 -11 -10 -16 -10 -6 0 -7 5
-4 10 3 6 11 10 16 10 6 0 7 -4 4 -10z m6185 -4 c0 -3 -4 -8 -10 -11 -5 -3
-10 -1 -10 4 0 6 5 11 10 11 6 0 10 -2 10 -4z m-30 -10 c0 -3 -4 -8 -10 -11
-5 -3 -10 -1 -10 4 0 6 5 11 10 11 6 0 10 -2 10 -4z m-70 -16 c0 -5 -5 -10
-11 -10 -7 0 -17 -6 -23 -14 -13 -16 -96 -49 -96 -38 0 4 17 14 38 21 20 8 48
22 61 32 27 22 31 23 31 9z m-6077 -37 c-7 -2 -19 -2 -25 0 -7 3 -2 5 12 5 14
0 19 -2 13 -5z m5927 -38 c-7 -8 -17 -15 -23 -15 -6 0 -2 7 9 15 25 19 30 19
14 0z m2495 6 c3 -5 2 -12 -3 -15 -5 -3 -9 1 -9 9 0 17 3 19 12 6z m-2560 -41
c-8 -13 -65 -43 -71 -37 -5 5 56 47 69 47 5 0 5 -5 2 -10z m2620 -30 c3 -6 -1
-7 -9 -4 -18 7 -21 14 -7 14 6 0 13 -4 16 -10z m-2711 -25 c-4 -8 -10 -12 -15
-9 -5 3 -9 -2 -9 -10 0 -8 -4 -18 -10 -21 -15 -10 1 28 18 43 20 16 23 15 16
-3z m2896 5 c0 -5 -7 -7 -15 -4 -8 4 -15 8 -15 10 0 2 7 4 15 4 8 0 15 -4 15
-10z m50 -14 c-7 -7 -13 -7 -20 0 -6 6 -3 10 10 10 13 0 16 -4 10 -10z m-9123
-22 c-3 -3 -12 -4 -19 -1 -8 3 -5 6 6 6 11 1 17 -2 13 -5z m6123 2 c0 -2 -7
-7 -16 -10 -8 -3 -12 -2 -9 4 6 10 25 14 25 6z m2915 -6 c3 -5 1 -10 -4 -10
-6 0 -11 5 -11 10 0 6 2 10 4 10 3 0 8 -4 11 -10z m-2965 -50 c11 -8 9 -9 -12
-8 -16 1 -28 6 -28 10 0 11 22 10 40 -2z m-65 -29 c3 -5 2 -12 -3 -15 -5 -3
-9 1 -9 9 0 17 3 19 12 6z m-6135 -36 c-7 -8 -17 -12 -23 -8 -6 4 -3 9 9 14
27 11 28 11 14 -6z m6065 -5 c-3 -5 -12 -10 -18 -10 -7 0 -6 4 3 10 19 12 23
12 15 0z m15 -14 c0 -2 -8 -10 -17 -17 -16 -13 -17 -12 -4 4 13 16 21 21 21
13z m-6115 -16 c-3 -5 -12 -10 -18 -10 -7 0 -6 4 3 10 19 12 23 12 15 0z
m5985 -94 c0 -2 -8 -10 -17 -17 -16 -13 -17 -12 -4 4 13 16 21 21 21 13z
m-133 -52 c-3 -3 -12 -4 -19 -1 -8 3 -5 6 6 6 11 1 17 -2 13 -5z m-2 -44 c-3
-5 -12 -10 -18 -10 -7 0 -6 4 3 10 19 12 23 12 15 0z m3736 -7 c13 -16 12 -17
-3 -4 -17 13 -22 21 -14 21 2 0 10 -8 17 -17z m-6997 -72 c-2 -3 -12 3 -22 13
-16 17 -16 18 5 5 12 -7 20 -15 17 -18z m-1327 -67 c-3 -3 -12 -4 -19 -1 -8 3
-5 6 6 6 11 1 17 -2 13 -5z m8463 -34 c0 -5 -7 -7 -15 -4 -8 4 -15 8 -15 10 0
2 7 4 15 4 8 0 15 -4 15 -10z m-7063 -26 c-3 -3 -12 -4 -19 -1 -8 3 -5 6 6 6
11 1 17 -2 13 -5z m-1607 -24 c8 -5 11 -10 5 -10 -5 0 -17 5 -25 10 -8 5 -10
10 -5 10 6 0 17 -5 25 -10z m8700 0 c0 -5 -2 -10 -4 -10 -3 0 -8 5 -11 10 -3
6 -1 10 4 10 6 0 11 -4 11 -10z m-8437 -37 c-7 -2 -19 -2 -25 0 -7 3 -2 5 12
5 14 0 19 -2 13 -5z m4317 -27 c0 -2 -8 -10 -17 -17 -16 -13 -17 -12 -4 4 13
16 21 21 21 13z m-110 -36 c0 -5 -5 -10 -11 -10 -5 0 -7 5 -4 10 3 6 8 10 11
10 2 0 4 -4 4 -10z m135 0 c-3 -5 -12 -10 -18 -10 -7 0 -6 4 3 10 19 12 23 12
15 0z m-2960 -50 c3 -5 1 -10 -4 -10 -6 0 -11 5 -11 10 0 6 2 10 4 10 3 0 8
-4 11 -10z m7135 0 c0 -5 -4 -10 -10 -10 -5 0 -10 5 -10 10 0 6 5 10 10 10 6
0 10 -4 10 -10z m-4335 -20 c-3 -5 -14 -10 -23 -9 -14 0 -13 2 3 9 27 11 27
11 20 0z m4380 -20 c3 -6 -1 -7 -9 -4 -18 7 -21 14 -7 14 6 0 13 -4 16 -10z
m-7174 -18 c-7 -2 -18 1 -23 6 -8 8 -4 9 13 5 13 -4 18 -8 10 -11z m2759 8 c0
-5 -5 -10 -11 -10 -5 0 -7 5 -4 10 3 6 8 10 11 10 2 0 4 -4 4 -10z m-3480 -94
c0 -11 -19 -15 -25 -6 -3 5 1 10 9 10 9 0 16 -2 16 -4z m5953 -23 c-7 -2 -21
-2 -30 0 -10 3 -4 5 12 5 17 0 24 -2 18 -5z m-153 -33 c0 -5 -5 -10 -11 -10
-5 0 -7 5 -4 10 3 6 8 10 11 10 2 0 4 -4 4 -10z m80 0 c-34 -11 -60 -11 -35 0
11 5 29 8 40 8 16 0 15 -2 -5 -8z m-125 -10 c3 -5 2 -10 -4 -10 -5 0 -13 5
-16 10 -3 6 -2 10 4 10 5 0 13 -4 16 -10z m-85 -15 c-7 -8 -20 -15 -29 -15
-11 0 -8 5 9 14 33 19 35 19 20 1z m-5641 -21 c14 -12 -19 -1 -35 12 -18 14
-18 14 6 3 14 -6 27 -13 29 -15z m-1402 0 c-3 -3 -12 -4 -19 -1 -8 3 -5 6 6 6
11 1 17 -2 13 -5z m4726 -9 c-3 -9 -8 -14 -10 -11 -3 3 -2 9 2 15 9 16 15 13
8 -4z m2812 5 c3 -5 1 -10 -4 -10 -6 0 -11 5 -11 10 0 6 2 10 4 10 3 0 8 -4
11 -10z m265 -1 c0 -11 -21 -11 -39 0 -9 6 -5 9 13 9 14 0 26 -4 26 -9z m-577
-6 c-7 -2 -19 -2 -25 0 -7 3 -2 5 12 5 14 0 19 -2 13 -5z m612 -53 c3 -5 1
-10 -4 -10 -6 0 -11 5 -11 10 0 6 2 10 4 10 3 0 8 -4 11 -10z m-868 -6 c-3 -3
-12 -4 -19 -1 -8 3 -5 6 6 6 11 1 17 -2 13 -5z m-2327 -78 c0 -2 -7 -7 -16
-10 -8 -3 -12 -2 -9 4 6 10 25 14 25 6z m3455 -6 c3 -6 -1 -7 -9 -4 -18 7 -21
14 -7 14 6 0 13 -4 16 -10z m-3504 -23 c-13 -13 -26 -3 -16 12 3 6 11 8 17 5
6 -4 6 -10 -1 -17z m3449 -3 c0 -2 -9 0 -20 6 -11 6 -20 13 -20 16 0 2 9 0 20
-6 11 -6 20 -13 20 -16z m-5923 10 c-3 -3 -12 -4 -19 -1 -8 3 -5 6 6 6 11 1
17 -2 13 -5z m4588 -34 c-3 -5 -14 -10 -23 -9 -14 0 -13 2 3 9 27 11 27 11 20
0z m-165 -4 c0 -2 -7 -7 -16 -10 -8 -3 -12 -2 -9 4 6 10 25 14 25 6z m110 -6
c0 -5 -5 -10 -11 -10 -5 0 -7 5 -4 10 3 6 8 10 11 10 2 0 4 -4 4 -10z m-7815
-40 c3 -5 1 -10 -4 -10 -6 0 -11 5 -11 10 0 6 2 10 4 10 3 0 8 -4 11 -10z
m9314 -36 c10 -9 -35 -3 -49 6 -11 8 -7 9 15 4 17 -4 32 -8 34 -10z m-8132
-60 c-3 -3 -12 -4 -19 -1 -8 3 -5 6 6 6 11 1 17 -2 13 -5z m8238 -34 c-3 -5
-1 -10 6 -10 7 0 10 -3 6 -6 -9 -9 -28 6 -22 17 4 5 8 9 11 9 3 0 2 -4 -1 -10z
m-3869 -22 c4 -7 4 -10 -1 -6 -4 4 -14 3 -22 -3 -8 -8 -13 -8 -13 -1 0 6 6 13
13 15 6 3 13 6 14 6 1 1 5 -5 9 -11z m-4471 -18 c-3 -5 -12 -10 -18 -10 -7 0
-6 4 3 10 19 12 23 12 15 0z m7362 -66 c-3 -3 -12 -4 -19 -1 -8 3 -5 6 6 6 11
1 17 -2 13 -5z m126 -1 c-7 -2 -21 -2 -30 0 -10 3 -4 5 12 5 17 0 24 -2 18 -5z
m104 -9 c-3 -3 -12 -4 -19 -1 -8 3 -5 6 6 6 11 1 17 -2 13 -5z m100 -20 c-3
-3 -12 -4 -19 -1 -8 3 -5 6 6 6 11 1 17 -2 13 -5z m-6350 -20 c-3 -3 -12 -4
-19 -1 -8 3 -5 6 6 6 11 1 17 -2 13 -5z m8300 -10 c-3 -3 -12 -4 -19 -1 -8 3
-5 6 6 6 11 1 17 -2 13 -5z m-1957 -14 c0 -5 -5 -10 -11 -10 -5 0 -7 5 -4 10
3 6 8 10 11 10 2 0 4 -4 4 -10z m-6390 -30 c0 -5 -2 -10 -4 -10 -3 0 -8 5 -11
10 -3 6 -1 10 4 10 6 0 11 -4 11 -10z m5934 -9 c3 -5 -6 -11 -21 -14 -26 -5
-26 -4 -8 9 22 17 22 17 29 5z m566 -11 c0 -5 -5 -10 -11 -10 -5 0 -7 5 -4 10
3 6 8 10 11 10 2 0 4 -4 4 -10z m103 -7 c-7 -2 -19 -2 -25 0 -7 3 -2 5 12 5
14 0 19 -2 13 -5z m-743 -16 c0 -2 -10 -12 -22 -23 l-23 -19 19 23 c18 21 26
27 26 19z m820 -13 c0 -2 -7 -4 -15 -4 -8 0 -15 4 -15 10 0 5 7 7 15 4 8 -4
15 -8 15 -10z m517 -20 c-3 -3 -12 -4 -19 -1 -8 3 -5 6 6 6 11 1 17 -2 13 -5z
m-7672 -32 c-3 -3 -11 0 -18 7 -9 10 -8 11 6 5 10 -3 15 -9 12 -12z m3306 -5
c-10 -9 -11 -8 -5 6 3 10 9 15 12 12 3 -3 0 -11 -7 -18z m2129 19 c0 -11 -19
-15 -25 -6 -3 5 1 10 9 10 9 0 16 -2 16 -4z m-5213 -32 c-3 -3 -12 -4 -19 -1
-8 3 -5 6 6 6 11 1 17 -2 13 -5z m928 -14 c3 -6 -1 -7 -9 -4 -18 7 -21 14 -7
14 6 0 13 -4 16 -10z m4995 -10 c-20 -13 -33 -13 -25 0 3 6 14 10 23 10 15 0
15 -2 2 -10z m-2840 -34 c0 -2 -8 -10 -17 -17 -16 -13 -17 -12 -4 4 13 16 21
21 21 13z m3750 -6 c0 -5 -5 -10 -11 -10 -5 0 -7 5 -4 10 3 6 8 10 11 10 2 0
4 -4 4 -10z m120 -10 c0 -5 -2 -10 -4 -10 -3 0 -8 5 -11 10 -3 6 -1 10 4 10 6
0 11 -4 11 -10z m-6123 -76 c-3 -3 -12 -4 -19 -1 -8 3 -5 6 6 6 11 1 17 -2 13
-5z m7740 -10 c-3 -3 -12 -4 -19 -1 -8 3 -5 6 6 6 11 1 17 -2 13 -5z m60 0
c-3 -3 -12 -4 -19 -1 -8 3 -5 6 6 6 11 1 17 -2 13 -5z m-5742 -44 c-3 -5 -12
-10 -18 -10 -7 0 -6 4 3 10 19 12 23 12 15 0z m-2145 -14 c0 -3 -4 -8 -10 -11
-5 -3 -10 -1 -10 4 0 6 5 11 10 11 6 0 10 -2 10 -4z m2120 -10 c0 -2 -8 -10
-17 -17 -16 -13 -17 -12 -4 4 13 16 21 21 21 13z m-2110 -10 c0 -2 -8 -10 -17
-17 -16 -13 -17 -12 -4 4 13 16 21 21 21 13z m80 0 c0 -2 -8 -10 -17 -17 -16
-13 -17 -12 -4 4 13 16 21 21 21 13z m-1635 -36 c3 -5 1 -10 -4 -10 -6 0 -11
5 -11 10 0 6 2 10 4 10 3 0 8 -4 11 -10z m3685 -10 c0 -5 -4 -10 -10 -10 -5 0
-10 5 -10 10 0 6 5 10 10 10 6 0 10 -4 10 -10z m4537 4 c-3 -3 -12 -4 -19 -1
-8 3 -5 6 6 6 11 1 17 -2 13 -5z m-6760 -34 c-14 -11 -29 -20 -34 -20 -10 1
39 39 51 40 5 0 -3 -9 -17 -20z m81 -10 c-7 -11 -15 -15 -17 -9 -2 6 3 15 10
20 20 12 21 11 7 -11z m-1331 -6 c-3 -3 -12 -4 -19 -1 -8 3 -5 6 6 6 11 1 17
-2 13 -5z m-126 -21 c13 -16 12 -17 -3 -4 -10 7 -18 15 -18 17 0 8 8 3 21 -13z
m1399 -6 c0 -2 -9 -12 -20 -22 -24 -21 -27 -14 -4 9 15 15 24 20 24 13z m5147
-33 c-3 -3 -12 -4 -19 -1 -8 3 -5 6 6 6 11 1 17 -2 13 -5z m-6316 -41 c13 -15
12 -15 -11 -3 -34 17 -36 20 -18 20 9 0 22 -7 29 -17z m3219 -40 c0 -3 -6 -3
-14 0 -7 3 -20 0 -27 -6 -11 -10 -11 -9 0 5 11 15 41 15 41 1z m-2963 -49 c-3
-3 -12 -4 -19 -1 -8 3 -5 6 6 6 11 1 17 -2 13 -5z m6188 -12 c-3 -3 -11 0 -18
7 -9 10 -8 11 6 5 10 -3 15 -9 12 -12z m-6072 -9 c-7 -2 -19 -2 -25 0 -7 3 -2
5 12 5 14 0 19 -2 13 -5z m190 0 c-7 -2 -19 -2 -25 0 -7 3 -2 5 12 5 14 0 19
-2 13 -5z m6864 1 c-3 -3 -12 -4 -19 -1 -8 3 -5 6 6 6 11 1 17 -2 13 -5z
m1570 0 c-3 -3 -12 -4 -19 -1 -8 3 -5 6 6 6 11 1 17 -2 13 -5z m-5977 -48 c0
-3 -4 -8 -10 -11 -5 -3 -10 -1 -10 4 0 6 5 11 10 11 6 0 10 -2 10 -4z m2615
-36 c3 -6 -1 -7 -9 -4 -18 7 -21 14 -7 14 6 0 13 -4 16 -10z m-2585 -3 c0 -2
-10 -12 -22 -23 l-23 -19 19 23 c18 21 26 27 26 19z m-2567 -34 c-7 -2 -19 -2
-25 0 -7 3 -2 5 12 5 14 0 19 -2 13 -5z m-66 -9 c-3 -3 -12 -4 -19 -1 -8 3 -5
6 6 6 11 1 17 -2 13 -5z m8520 -60 c-3 -3 -12 -4 -19 -1 -8 3 -5 6 6 6 11 1
17 -2 13 -5z m-5997 -17 c0 -2 -12 -14 -27 -28 l-28 -24 24 28 c23 25 31 32
31 24z m-96 -32 c-4 -8 -8 -15 -10 -15 -2 0 -4 7 -4 15 0 8 4 15 10 15 5 0 7
-7 4 -15z m-4 -95 c0 -5 -4 -10 -10 -10 -5 0 -10 5 -10 10 0 6 5 10 10 10 6 0
10 -4 10 -10z m-40 -24 c0 -2 -8 -10 -17 -17 -16 -13 -17 -12 -4 4 13 16 21
21 21 13z m4747 -72 c-3 -3 -12 -4 -19 -1 -8 3 -5 6 6 6 11 1 17 -2 13 -5z
m1303 2 c0 -2 -7 -7 -16 -10 -8 -3 -12 -2 -9 4 6 10 25 14 25 6z m-1331 -19
c-2 -1 -13 -9 -24 -17 -19 -14 -19 -14 -6 3 7 9 18 17 24 17 6 0 8 -1 6 -3z
m-4809 -11 c0 -2 -8 -10 -17 -17 -16 -13 -17 -12 -4 4 13 16 21 21 21 13z
m4677 -32 c-3 -3 -12 -4 -19 -1 -8 3 -5 6 6 6 11 1 17 -2 13 -5z m-1676 -41
c13 -17 13 -17 -6 -3 -11 8 -22 16 -24 17 -2 2 0 3 6 3 6 0 17 -8 24 -17z
m1342 -40 c-7 -2 -19 -2 -25 0 -7 3 -2 5 12 5 14 0 19 -2 13 -5z m114 1 c-3
-3 -12 -4 -19 -1 -8 3 -5 6 6 6 11 1 17 -2 13 -5z m-8183 -103 c-2 -3 -12 3
-22 13 -16 17 -16 18 5 5 12 -7 20 -15 17 -18z m3556 25 c0 -2 -8 -10 -17 -17
-16 -13 -17 -12 -4 4 13 16 21 21 21 13z m-3620 -76 c0 -5 -5 -10 -11 -10 -5
0 -7 5 -4 10 3 6 8 10 11 10 2 0 4 -4 4 -10z m50 -11 c0 -6 -4 -7 -10 -4 -5 3
-10 11 -10 16 0 6 5 7 10 4 6 -3 10 -11 10 -16z m3520 17 c0 -2 -7 -7 -16 -10
-8 -3 -12 -2 -9 4 6 10 25 14 25 6z m-115 -15 c3 -5 0 -13 -6 -17 -7 -4 -9 -3
-5 4 3 5 0 13 -6 15 -9 4 -10 6 -1 6 6 1 14 -3 18 -8z m-3260 -40 c2 -4 -9 -5
-26 -3 -16 2 -31 7 -34 11 -2 4 9 5 26 3 16 -2 31 -7 34 -11z m3315 16 c0 -2
-10 -12 -22 -23 l-23 -19 19 23 c18 21 26 27 26 19z m-3360 -72 c11 -13 10
-14 -4 -9 -9 3 -16 10 -16 15 0 13 6 11 20 -6z m6864 -53 c3 -5 -1 -9 -9 -9
-8 0 -12 4 -9 9 3 4 7 8 9 8 2 0 6 -4 9 -8z m-6776 -27 c12 -14 18 -25 13 -25
-5 0 -16 11 -25 25 -9 14 -15 25 -13 25 2 0 13 -11 25 -25z m-138 -5 c0 -5 -5
-10 -11 -10 -5 0 -7 5 -4 10 3 6 8 10 11 10 2 0 4 -4 4 -10z m3220 -14 c0 -3
-4 -8 -10 -11 -5 -3 -10 -1 -10 4 0 6 5 11 10 11 6 0 10 -2 10 -4z m-2953 -12
c-3 -3 -12 -4 -19 -1 -8 3 -5 6 6 6 11 1 17 -2 13 -5z m9173 -8 c0 -2 -8 -10
-17 -17 -16 -13 -17 -12 -4 4 13 16 21 21 21 13z m-6396 -15 c4 -5 -3 -7 -14
-4 -23 6 -26 13 -6 13 8 0 17 -4 20 -9z m-2708 -32 c3 -6 -5 -3 -20 6 -14 10
-26 19 -26 22 0 7 39 -17 46 -28z m2659 -29 c-3 -5 -11 -10 -16 -10 -6 0 -7 5
-4 10 3 6 11 10 16 10 6 0 7 -4 4 -10z m-2670 -30 c-3 -5 -12 -10 -18 -10 -7
0 -6 4 3 10 19 12 23 12 15 0z m158 -21 l22 -21 -27 13 c-16 7 -28 16 -28 21
0 13 9 10 33 -13z m8867 11 c-8 -5 -19 -10 -25 -10 -5 0 -3 5 5 10 8 5 20 10
25 10 6 0 3 -5 -5 -10z m-2157 -11 c-8 -8 -16 -8 -30 0 -16 9 -14 10 12 11 21
0 26 -3 18 -11z m-4346 -5 c-3 -3 -12 -4 -19 -1 -8 3 -5 6 6 6 11 1 17 -2 13
-5z m4420 -10 c-3 -3 -12 -4 -19 -1 -8 3 -5 6 6 6 11 1 17 -2 13 -5z m-6837
-24 c0 -5 -5 -10 -11 -10 -5 0 -7 5 -4 10 3 6 8 10 11 10 2 0 4 -4 4 -10z m35
-29 c-6 -5 -25 10 -25 20 0 5 6 4 14 -3 8 -7 12 -15 11 -17z m345 -76 c9 -10
9 -15 1 -15 -6 0 -11 4 -11 9 0 5 -8 12 -17 14 -15 4 -15 5 -2 6 9 0 22 -6 29
-14z m1880 0 c-7 -9 -15 -13 -17 -11 -7 7 7 26 19 26 6 0 6 -6 -2 -15z m4565
-3 c-3 -3 -11 0 -18 7 -9 10 -8 11 6 5 10 -3 15 -9 12 -12z m-6668 2 c-3 -3
-12 -4 -19 -1 -8 3 -5 6 6 6 11 1 17 -2 13 -5z m298 -32 c-3 -3 -11 0 -18 7
-9 10 -8 11 6 5 10 -3 15 -9 12 -12z m1665 -7 c0 -12 -19 -12 -23 0 -4 9 -1
12 9 8 7 -3 14 -7 14 -8z m-1585 -15 c3 -6 -1 -7 -9 -4 -18 7 -21 14 -7 14 6
0 13 -4 16 -10z m6380 -12 c-9 -6 -19 -7 -22 -4 -4 3 -1 6 6 6 7 0 9 4 6 10
-4 6 1 7 11 3 15 -6 15 -7 -1 -15z m-5105 -55 c-12 -8 -24 -12 -27 -9 -4 3 -1
6 7 6 9 0 10 3 1 14 -9 11 -6 12 14 8 26 -4 26 -5 5 -19z m5407 21 c-3 -3 -12
-4 -19 -1 -8 3 -5 6 6 6 11 1 17 -2 13 -5z m-5317 -20 c0 -2 -9 -4 -20 -4 -11
0 -20 4 -20 9 0 5 9 7 20 4 11 -3 20 -7 20 -9z m-1077 -1 c-7 -2 -19 -2 -25 0
-7 3 -2 5 12 5 14 0 19 -2 13 -5z m947 -8 c0 -8 -2 -15 -4 -15 -2 0 -6 7 -10
15 -3 8 -1 15 4 15 6 0 10 -7 10 -15z m-805 -4 c3 -6 -3 -9 -14 -8 -11 0 -17
5 -15 9 7 11 22 10 29 -1z m742 3 c-3 -3 -12 -4 -19 -1 -8 3 -5 6 6 6 11 1 17
-2 13 -5z m-560 -10 c-3 -3 -12 -4 -19 -1 -8 3 -5 6 6 6 11 1 17 -2 13 -5z
m476 -1 c-7 -2 -19 -2 -25 0 -7 3 -2 5 12 5 14 0 19 -2 13 -5z m5431 -2 c4 -5
-3 -7 -14 -4 -23 6 -26 13 -6 13 8 0 17 -4 20 -9z m-6454 -5 c0 -3 -4 -8 -10
-11 -5 -3 -10 -1 -10 4 0 6 5 11 10 11 6 0 10 -2 10 -4z m172 -18 c-7 -7 -12
-8 -12 -2 0 6 3 14 7 17 3 4 9 5 12 2 2 -3 -1 -11 -7 -17z m285 16 c-3 -3 -12
-4 -19 -1 -8 3 -5 6 6 6 11 1 17 -2 13 -5z m450 0 c-3 -3 -12 -4 -19 -1 -8 3
-5 6 6 6 11 1 17 -2 13 -5z m-691 -13 c-4 -5 -1 -12 4 -14 6 -3 5 -4 -2 -3
-15 3 -23 26 -8 26 6 0 9 -4 6 -9z m371 3 c-3 -3 -12 -4 -19 -1 -8 3 -5 6 6 6
11 1 17 -2 13 -5z m200 0 c-3 -3 -12 -4 -19 -1 -8 3 -5 6 6 6 11 1 17 -2 13
-5z m56 -1 c-7 -2 -19 -2 -25 0 -7 3 -2 5 12 5 14 0 19 -2 13 -5z m432 -13 c3
-5 1 -10 -4 -10 -6 0 -11 5 -11 10 0 6 2 10 4 10 3 0 8 -4 11 -10z m-682 -17
c-7 -2 -19 -2 -25 0 -7 3 -2 5 12 5 14 0 19 -2 13 -5z m7228 -14 c-14 -5 -28
-6 -32 -2 -4 4 6 9 24 10 30 1 31 1 8 -8z m-106 -27 c-3 -3 -11 0 -18 7 -9 10
-8 11 6 5 10 -3 15 -9 12 -12z m-495 -72 c0 -5 -7 -10 -16 -10 -8 0 -12 5 -9
10 3 6 10 10 16 10 5 0 9 -4 9 -10z"/>
<path d="M2678 8043 c7 -3 16 -2 19 1 4 3 -2 6 -13 5 -11 0 -14 -3 -6 -6z"/>
<path d="M2743 8043 c20 -2 54 -2 75 0 20 2 3 4 -38 4 -41 0 -58 -2 -37 -4z"/>
<path d="M2883 8043 c9 -2 23 -2 30 0 6 3 -1 5 -18 5 -16 0 -22 -2 -12 -5z"/>
<path d="M2475 8030 c-4 -6 3 -10 14 -10 25 0 27 6 6 13 -8 4 -17 2 -20 -3z"/>
<path d="M2558 8033 c7 -3 16 -2 19 1 4 3 -2 6 -13 5 -11 0 -14 -3 -6 -6z"/>
<path d="M3090 8030 c0 -6 7 -10 15 -10 8 0 15 2 15 4 0 2 -7 6 -15 10 -8 3
-15 1 -15 -4z"/>
<path d="M2405 8020 c-3 -5 1 -10 10 -10 9 0 13 5 10 10 -3 6 -8 10 -10 10 -2
0 -7 -4 -10 -10z"/>
<path d="M3168 8003 c7 -3 16 -2 19 1 4 3 -2 6 -13 5 -11 0 -14 -3 -6 -6z"/>
<path d="M2178 7993 c7 -3 16 -2 19 1 4 3 -2 6 -13 5 -11 0 -14 -3 -6 -6z"/>
<path d="M2433 7988 c-10 -4 5 -7 35 -7 28 -1 52 3 52 8 0 11 -60 10 -87 -1z"/>
<path d="M2220 7980 c8 -5 20 -10 25 -10 6 0 3 5 -5 10 -8 5 -19 10 -25 10 -5
0 -3 -5 5 -10z"/>
<path d="M2285 7980 c27 -12 43 -12 25 0 -8 5 -22 9 -30 9 -10 0 -8 -3 5 -9z"/>
<path d="M3078 7983 c7 -3 16 -2 19 1 4 3 -2 6 -13 5 -11 0 -14 -3 -6 -6z"/>
<path d="M3446 7928 c3 -4 9 -8 15 -8 5 0 9 4 9 8 0 5 -7 9 -15 9 -8 0 -12 -4
-9 -9z"/>
<path d="M2060 7920 c-18 -12 -2 -12 25 0 13 6 15 9 5 9 -8 0 -22 -4 -30 -9z"/>
<path d="M1929 7893 c-13 -16 -12 -17 4 -4 16 13 21 21 13 21 -2 0 -10 -8 -17
-17z"/>
<path d="M2005 7900 c-3 -5 -2 -10 4 -10 5 0 13 5 16 10 3 6 2 10 -4 10 -5 0
-13 -4 -16 -10z"/>
<path d="M9100 7906 c0 -2 13 -6 29 -8 17 -2 28 -1 25 4 -5 8 -54 12 -54 4z"/>
<path d="M9535 7860 c3 -5 8 -10 11 -10 2 0 4 5 4 10 0 6 -5 10 -11 10 -5 0
-7 -4 -4 -10z"/>
<path d="M1890 7850 c-9 -6 -10 -10 -3 -10 6 0 15 5 18 10 8 12 4 12 -15 0z"/>
<path d="M3620 7851 c0 -8 50 -34 56 -29 1 2 -11 11 -27 20 -16 9 -29 14 -29
9z"/>
<path d="M9188 7853 c6 -2 18 -2 25 0 6 3 1 5 -13 5 -14 0 -19 -2 -12 -5z"/>
<path d="M9048 7843 c7 -3 16 -2 19 1 4 3 -2 6 -13 5 -11 0 -14 -3 -6 -6z"/>
<path d="M8708 7833 c6 -2 18 -2 25 0 6 3 1 5 -13 5 -14 0 -19 -2 -12 -5z"/>
<path d="M8958 7833 c6 -2 18 -2 25 0 6 3 1 5 -13 5 -14 0 -19 -2 -12 -5z"/>
<path d="M8750 7810 c-13 -8 -13 -10 2 -10 9 0 20 5 23 10 8 13 -5 13 -25 0z"/>
<path d="M8686 7797 c3 -10 9 -15 12 -12 3 3 0 11 -7 18 -10 9 -11 8 -5 -6z"/>
<path d="M8587 7789 c7 -7 15 -10 18 -7 3 3 -2 9 -12 12 -14 6 -15 5 -6 -5z"/>
<path d="M8630 7790 c0 -5 5 -10 11 -10 5 0 7 5 4 10 -3 6 -8 10 -11 10 -2 0
-4 -4 -4 -10z"/>
<path d="M1805 7780 c-3 -5 -1 -10 4 -10 6 0 11 5 11 10 0 6 -2 10 -4 10 -3 0
-8 -4 -11 -10z"/>
<path d="M3675 7780 c-3 -5 1 -10 9 -10 9 0 16 5 16 10 0 6 -4 10 -9 10 -6 0
-13 -4 -16 -10z"/>
<path d="M9998 7783 c7 -3 16 -2 19 1 4 3 -2 6 -13 5 -11 0 -14 -3 -6 -6z"/>
<path d="M3718 7773 c7 -3 16 -2 19 1 4 3 -2 6 -13 5 -11 0 -14 -3 -6 -6z"/>
<path d="M8420 7710 c0 -5 4 -10 9 -10 6 0 13 5 16 10 3 6 -1 10 -9 10 -9 0
-16 -4 -16 -10z"/>
<path d="M10188 7703 c7 -3 16 -2 19 1 4 3 -2 6 -13 5 -11 0 -14 -3 -6 -6z"/>
<path d="M3848 7653 c7 -3 16 -2 19 1 4 3 -2 6 -13 5 -11 0 -14 -3 -6 -6z"/>
<path d="M8270 7640 c8 -5 22 -9 30 -9 10 0 8 3 -5 9 -27 12 -43 12 -25 0z"/>
<path d="M8157 7605 c-3 -7 7 -9 29 -7 42 5 43 8 4 14 -16 2 -31 -1 -33 -7z"/>
<path d="M8265 7600 c-13 -5 -14 -9 -5 -9 8 0 24 4 35 9 13 5 14 9 5 9 -8 0
-24 -4 -35 -9z"/>
<path d="M1526 7575 c4 -8 11 -15 16 -15 6 0 5 6 -2 15 -7 8 -14 15 -16 15 -2
0 -1 -7 2 -15z"/>
<path d="M10550 7560 c0 -5 5 -10 11 -10 5 0 7 5 4 10 -3 6 -8 10 -11 10 -2 0
-4 -4 -4 -10z"/>
<path d="M8138 7543 c6 -2 18 -2 25 0 6 3 1 5 -13 5 -14 0 -19 -2 -12 -5z"/>
<path d="M4025 7530 c-3 -5 1 -10 10 -10 9 0 13 5 10 10 -3 6 -8 10 -10 10 -2
0 -7 -4 -10 -10z"/>
<path d="M8038 7533 c7 -3 16 -2 19 1 4 3 -2 6 -13 5 -11 0 -14 -3 -6 -6z"/>
<path d="M8075 7520 c-3 -6 1 -7 9 -4 18 7 21 14 7 14 -6 0 -13 -4 -16 -10z"/>
<path d="M10535 7500 c-3 -5 -1 -10 4 -10 6 0 11 5 11 10 0 6 -2 10 -4 10 -3
0 -8 -4 -11 -10z"/>
<path d="M8020 7488 c0 -4 -11 -8 -25 -8 -14 0 -25 -4 -25 -9 0 -10 32 -3 80
17 l25 11 -27 -2 c-16 -1 -28 -5 -28 -9z"/>
<path d="M10716 7461 c-3 -5 1 -12 10 -15 22 -8 25 -4 9 11 -8 7 -16 9 -19 4z"/>
<path d="M7890 7425 c0 -2 10 -10 23 -16 20 -11 21 -11 8 4 -13 16 -31 23 -31
12z"/>
<path d="M7840 7405 c0 -8 4 -15 8 -15 5 0 9 7 9 15 0 8 -4 15 -9 15 -4 0 -8
-7 -8 -15z"/>
<path d="M7873 7405 c0 -8 4 -12 9 -9 5 3 6 10 3 15 -9 13 -12 11 -12 -6z"/>
<path d="M1300 7338 c0 -4 4 -8 9 -8 6 0 12 4 15 8 3 5 -1 9 -9 9 -8 0 -15 -4
-15 -9z"/>
<path d="M10905 7260 c10 -11 20 -20 23 -20 3 0 -3 9 -13 20 -10 11 -20 20
-23 20 -3 0 3 -9 13 -20z"/>
<path d="M7660 7260 c-9 -6 -10 -10 -3 -10 6 0 15 5 18 10 8 12 4 12 -15 0z"/>
<path d="M1253 7253 c4 -3 1 -13 -6 -22 -11 -14 -10 -14 5 -2 16 12 16 31 1
31 -4 0 -3 -3 0 -7z"/>
<path d="M4200 7253 c0 -5 11 -8 25 -8 14 0 25 3 25 8 0 4 -11 7 -25 7 -14 0
-25 -3 -25 -7z"/>
<path d="M10950 7226 c0 -2 9 -6 20 -9 11 -3 18 -1 14 4 -5 9 -34 13 -34 5z"/>
<path d="M11012 7221 c-11 -7 -11 -9 0 -14 9 -3 15 1 15 9 0 8 -1 14 -1 14 -1
0 -7 -4 -14 -9z"/>
<path d="M3028 7183 c7 -3 16 -2 19 1 4 3 -2 6 -13 5 -11 0 -14 -3 -6 -6z"/>
<path d="M7578 7183 c7 -3 16 -2 19 1 4 3 -2 6 -13 5 -11 0 -14 -3 -6 -6z"/>
<path d="M11018 7168 c5 -5 16 -8 23 -6 8 3 3 7 -10 11 -17 4 -21 3 -13 -5z"/>
<path d="M1203 7155 c0 -7 6 -11 14 -8 7 3 13 6 13 8 0 2 -6 5 -13 8 -8 3 -14
-1 -14 -8z"/>
<path d="M2790 7166 c0 -9 39 -13 51 -5 10 6 4 9 -18 9 -18 0 -33 -2 -33 -4z"/>
<path d="M3003 7163 c9 -2 25 -2 35 0 9 3 1 5 -18 5 -19 0 -27 -2 -17 -5z"/>
<path d="M2710 7150 c-8 -5 -10 -10 -5 -10 6 0 17 5 25 10 8 5 11 10 5 10 -5
0 -17 -5 -25 -10z"/>
<path d="M2888 7153 c7 -3 16 -2 19 1 4 3 -2 6 -13 5 -11 0 -14 -3 -6 -6z"/>
<path d="M3197 7119 c7 -7 15 -10 18 -7 3 3 -2 9 -12 12 -14 6 -15 5 -6 -5z"/>
<path d="M2428 6983 c7 -3 16 -2 19 1 4 3 -2 6 -13 5 -11 0 -14 -3 -6 -6z"/>
<path d="M7395 6900 c-3 -6 1 -7 9 -4 18 7 21 14 7 14 -6 0 -13 -4 -16 -10z"/>
<path d="M1075 6860 c6 -10 4 -12 -11 -6 -15 6 -17 5 -6 -5 9 -9 15 -10 23 -2
8 8 7 13 -2 18 -8 6 -10 4 -4 -5z"/>
<path d="M7340 6860 c-8 -5 -10 -10 -5 -10 6 0 17 5 25 10 8 5 11 10 5 10 -5
0 -17 -5 -25 -10z"/>
<path d="M2175 6809 c-4 -6 -5 -12 -2 -15 2 -3 7 2 10 11 7 17 1 20 -8 4z"/>
<path d="M2200 6790 c0 -5 5 -10 11 -10 5 0 7 5 4 10 -3 6 -8 10 -11 10 -2 0
-4 -4 -4 -10z"/>
<path d="M3585 6790 c-3 -5 1 -10 10 -10 9 0 13 5 10 10 -3 6 -8 10 -10 10 -2
0 -7 -4 -10 -10z"/>
<path d="M7230 6750 c-13 -8 -12 -10 3 -10 9 0 17 5 17 10 0 12 -1 12 -20 0z"/>
<path d="M3665 6710 c-3 -5 -2 -10 4 -10 5 0 13 5 16 10 3 6 2 10 -4 10 -5 0
-13 -4 -16 -10z"/>
<path d="M7150 6645 c-11 -13 -10 -14 4 -9 9 3 16 10 16 15 0 13 -6 11 -20 -6z"/>
<path d="M3670 6646 c0 -2 7 -7 16 -10 8 -3 12 -2 9 4 -6 10 -25 14 -25 6z"/>
<path d="M3665 6600 c-3 -5 1 -10 9 -10 9 0 16 5 16 10 0 6 -4 10 -9 10 -6 0
-13 -4 -16 -10z"/>
<path d="M2080 6588 c0 -4 4 -8 9 -8 6 0 12 4 15 8 3 5 -1 9 -9 9 -8 0 -15 -4
-15 -9z"/>
<path d="M4450 6566 c0 -2 8 -10 18 -17 15 -13 16 -12 3 4 -13 16 -21 21 -21
13z"/>
<path d="M7016 6553 c-6 -14 -5 -15 5 -6 7 7 10 15 7 18 -3 3 -9 -2 -12 -12z"/>
<path d="M9678 6513 c7 -3 16 -2 19 1 4 3 -2 6 -13 5 -11 0 -14 -3 -6 -6z"/>
<path d="M2485 6500 c-3 -5 -1 -10 4 -10 6 0 11 5 11 10 0 6 -2 10 -4 10 -3 0
-8 -4 -11 -10z"/>
<path d="M9680 6480 c0 -5 5 -10 11 -10 5 0 7 5 4 10 -3 6 -8 10 -11 10 -2 0
-4 -4 -4 -10z"/>
<path d="M9563 6473 c9 -2 23 -2 30 0 6 3 -1 5 -18 5 -16 0 -22 -2 -12 -5z"/>
<path d="M6958 6453 c7 -3 16 -2 19 1 4 3 -2 6 -13 5 -11 0 -14 -3 -6 -6z"/>
<path d="M3728 6433 c7 -3 16 -2 19 1 4 3 -2 6 -13 5 -11 0 -14 -3 -6 -6z"/>
<path d="M2500 6420 c-12 -8 -11 -10 8 -10 12 0 22 5 22 10 0 13 -11 13 -30 0z"/>
<path d="M3718 6413 c7 -3 16 -2 19 1 4 3 -2 6 -13 5 -11 0 -14 -3 -6 -6z"/>
<path d="M6865 6401 c-3 -6 3 -9 14 -8 11 0 17 5 15 9 -7 11 -22 10 -29 -1z"/>
<path d="M6975 6400 c-3 -6 1 -7 9 -4 18 7 21 14 7 14 -6 0 -13 -4 -16 -10z"/>
<path d="M10028 6393 c7 -3 16 -2 19 1 4 3 -2 6 -13 5 -11 0 -14 -3 -6 -6z"/>
<path d="M928 6333 c7 -3 16 -2 19 1 4 3 -2 6 -13 5 -11 0 -14 -3 -6 -6z"/>
<path d="M6838 6333 c7 -3 16 -2 19 1 4 3 -2 6 -13 5 -11 0 -14 -3 -6 -6z"/>
<path d="M8978 6333 c6 -2 18 -2 25 0 6 3 1 5 -13 5 -14 0 -19 -2 -12 -5z"/>
<path d="M3678 6323 c7 -3 16 -2 19 1 4 3 -2 6 -13 5 -11 0 -14 -3 -6 -6z"/>
<path d="M6865 6310 c-3 -5 -1 -10 4 -10 6 0 11 5 11 10 0 6 -2 10 -4 10 -3 0
-8 -4 -11 -10z"/>
<path d="M6798 6293 c7 -3 16 -2 19 1 4 3 -2 6 -13 5 -11 0 -14 -3 -6 -6z"/>
<path d="M8840 6290 c0 -5 5 -10 10 -10 6 0 10 5 10 10 0 6 -4 10 -10 10 -5 0
-10 -4 -10 -10z"/>
<path d="M10095 6260 c3 -5 10 -10 16 -10 5 0 9 5 9 10 0 6 -7 10 -16 10 -8 0
-12 -4 -9 -10z"/>
<path d="M8847 6243 c6 -15 13 -16 31 -4 10 6 7 10 -11 13 -18 4 -24 1 -20 -9z"/>
<path d="M2456 6242 c-3 -5 8 -6 25 -4 16 2 29 6 29 8 0 8 -49 4 -54 -4z"/>
<path d="M3728 6233 c7 -3 16 -2 19 1 4 3 -2 6 -13 5 -11 0 -14 -3 -6 -6z"/>
<path d="M6758 6233 c6 -2 18 -2 25 0 6 3 1 5 -13 5 -14 0 -19 -2 -12 -5z"/>
<path d="M4418 6213 c7 -3 16 -2 19 1 4 3 -2 6 -13 5 -11 0 -14 -3 -6 -6z"/>
<path d="M8790 6209 c0 -5 5 -7 10 -4 6 3 10 8 10 11 0 2 -4 4 -10 4 -5 0 -10
-5 -10 -11z"/>
<path d="M8875 6210 c-3 -5 -1 -10 4 -10 6 0 11 5 11 10 0 6 -2 10 -4 10 -3 0
-8 -4 -11 -10z"/>
<path d="M4408 6183 c7 -3 16 -2 19 1 4 3 -2 6 -13 5 -11 0 -14 -3 -6 -6z"/>
<path d="M888 6123 c7 -3 16 -2 19 1 4 3 -2 6 -13 5 -11 0 -14 -3 -6 -6z"/>
<path d="M1996 6112 c-2 -4 4 -9 15 -9 10 -1 19 2 19 8 0 11 -27 12 -34 1z"/>
<path d="M860 6080 c14 -4 34 -8 45 -8 16 0 15 2 -5 8 -14 4 -34 8 -45 8 -16
0 -15 -2 5 -8z"/>
<path d="M2438 6083 c7 -3 16 -2 19 1 4 3 -2 6 -13 5 -11 0 -14 -3 -6 -6z"/>
<path d="M10330 6080 c0 -5 5 -10 11 -10 5 0 7 5 4 10 -3 6 -8 10 -11 10 -2 0
-4 -4 -4 -10z"/>
<path d="M6630 6060 c-9 -6 -10 -10 -3 -10 6 0 15 5 18 10 8 12 4 12 -15 0z"/>
<path d="M1994 6043 c11 -13 29 -22 40 -22 20 1 20 2 1 6 -11 3 -29 12 -40 22
-20 16 -20 16 -1 -6z"/>
<path d="M8620 6020 c-9 -6 -10 -10 -3 -10 6 0 15 5 18 10 8 12 4 12 -15 0z"/>
<path d="M11550 6026 c0 -2 11 -6 25 -8 13 -3 22 -1 19 3 -5 9 -44 13 -44 5z"/>
<path d="M10327 6009 c7 -7 15 -10 18 -7 3 3 -2 9 -12 12 -14 6 -15 5 -6 -5z"/>
<path d="M1977 5989 c7 -7 15 -10 18 -7 3 3 -2 9 -12 12 -14 6 -15 5 -6 -5z"/>
<path d="M10461 5914 c0 -11 3 -14 6 -6 3 7 2 16 -1 19 -3 4 -6 -2 -5 -13z"/>
<path d="M8590 5912 c0 -5 7 -9 15 -9 8 0 15 4 15 9 0 4 -7 8 -15 8 -8 0 -15
-4 -15 -8z"/>
<path d="M9780 5880 c0 -5 7 -10 15 -10 8 0 15 5 15 10 0 6 -7 10 -15 10 -8 0
-15 -4 -15 -10z"/>
<path d="M8540 5864 c0 -8 5 -12 10 -9 6 4 8 11 5 16 -9 14 -15 11 -15 -7z"/>
<path d="M9390 5860 c0 -5 5 -10 11 -10 5 0 7 5 4 10 -3 6 -8 10 -11 10 -2 0
-4 -4 -4 -10z"/>
<path d="M9470 5860 c-18 -12 -2 -12 25 0 13 6 15 9 5 9 -8 0 -22 -4 -30 -9z"/>
<path d="M9807 5862 c-16 -3 -15 -6 9 -18 15 -8 32 -13 38 -10 6 2 2 5 -9 5
-15 1 -17 3 -7 10 11 7 11 9 0 13 -7 2 -21 2 -31 0z"/>
<path d="M9320 5838 c0 -5 9 -8 19 -8 11 0 22 3 24 8 3 4 -6 7 -19 7 -13 0
-24 -3 -24 -7z"/>
<path d="M2028 5833 c7 -3 16 -2 19 1 4 3 -2 6 -13 5 -11 0 -14 -3 -6 -6z"/>
<path d="M3498 5833 c7 -3 16 -2 19 1 4 3 -2 6 -13 5 -11 0 -14 -3 -6 -6z"/>
<path d="M6398 5833 c6 -2 18 -2 25 0 6 3 1 5 -13 5 -14 0 -19 -2 -12 -5z"/>
<path d="M3455 5820 c-16 -7 -17 -9 -3 -9 9 -1 20 4 23 9 7 11 7 11 -20 0z"/>
<path d="M6410 5800 c-9 -6 -10 -10 -3 -10 6 0 15 5 18 10 8 12 4 12 -15 0z"/>
<path d="M920 5761 c0 -6 4 -13 10 -16 6 -3 7 1 4 9 -7 18 -14 21 -14 7z"/>
<path d="M3367 5752 c-15 -17 -15 -18 6 -19 12 0 16 1 9 4 -10 4 -10 8 -1 19
17 20 5 17 -14 -4z"/>
<path d="M6325 5760 c-4 -6 -10 -8 -15 -5 -5 3 -11 1 -15 -5 -3 -5 1 -10 9
-10 8 0 18 5 21 10 4 6 11 7 17 4 7 -4 8 -2 4 4 -9 15 -13 15 -21 2z"/>
<path d="M3285 5710 c-3 -6 1 -7 9 -4 18 7 21 14 7 14 -6 0 -13 -4 -16 -10z"/>
<path d="M4230 5710 c-12 -8 -10 -10 8 -10 13 0 20 4 17 10 -7 12 -6 12 -25 0z"/>
<path d="M11566 5708 c7 -11 32 -10 39 2 3 6 -4 9 -19 8 -13 -1 -22 -6 -20
-10z"/>
<path d="M8505 5690 c-16 -7 -17 -9 -3 -9 9 -1 20 4 23 9 7 11 7 11 -20 0z"/>
<path d="M10440 5690 c-12 -7 -10 -9 7 -7 12 0 19 5 17 9 -6 10 -6 10 -24 -2z"/>
<path d="M2070 5666 c0 -3 9 -10 20 -16 11 -6 20 -8 20 -6 0 3 -9 10 -20 16
-11 6 -20 8 -20 6z"/>
<path d="M6245 5660 c-3 -5 -1 -10 4 -10 6 0 11 5 11 10 0 6 -2 10 -4 10 -3 0
-8 -4 -11 -10z"/>
<path d="M6163 5623 c-17 -6 -17 -30 0 -30 7 0 13 9 13 19 0 10 0 18 -1 17 0
0 -6 -3 -12 -6z"/>
<path d="M4078 5603 c7 -3 16 -2 19 1 4 3 -2 6 -13 5 -11 0 -14 -3 -6 -6z"/>
<path d="M4053 5573 c-7 -2 -13 -9 -13 -15 0 -12 41 -6 41 7 1 12 -11 15 -28
8z"/>
<path d="M10014 5554 c-18 -14 -18 -15 4 -4 12 6 22 13 22 15 0 8 -5 6 -26
-11z"/>
<path d="M8485 5530 c-3 -6 1 -7 9 -4 18 7 21 14 7 14 -6 0 -13 -4 -16 -10z"/>
<path d="M2260 5510 c0 -5 5 -10 11 -10 5 0 7 5 4 10 -3 6 -8 10 -11 10 -2 0
-4 -4 -4 -10z"/>
<path d="M6115 5500 c-10 -11 -13 -20 -8 -20 13 0 38 29 31 35 -3 3 -13 -4
-23 -15z"/>
<path d="M11570 5510 c0 -5 5 -10 10 -10 6 0 10 5 10 10 0 6 -4 10 -10 10 -5
0 -10 -4 -10 -10z"/>
<path d="M8470 5490 c0 -13 11 -13 30 0 12 8 11 10 -7 10 -13 0 -23 -4 -23
-10z"/>
<path d="M4009 5463 c-13 -16 -12 -17 4 -4 9 7 17 15 17 17 0 8 -8 3 -21 -13z"/>
<path d="M2235 5461 c-3 -6 3 -9 14 -8 11 0 17 5 15 9 -7 11 -22 10 -29 -1z"/>
<path d="M8428 5463 c7 -3 16 -2 19 1 4 3 -2 6 -13 5 -11 0 -14 -3 -6 -6z"/>
<path d="M10460 5410 c0 -5 5 -10 11 -10 5 0 7 5 4 10 -3 6 -8 10 -11 10 -2 0
-4 -4 -4 -10z"/>
<path d="M2320 5380 c8 -5 20 -10 25 -10 6 0 3 5 -5 10 -8 5 -19 10 -25 10 -5
0 -3 -5 5 -10z"/>
<path d="M9930 5350 c-13 -8 -12 -10 3 -10 9 0 17 5 17 10 0 12 -1 12 -20 0z"/>
<path d="M3758 5333 c7 -3 16 -2 19 1 4 3 -2 6 -13 5 -11 0 -14 -3 -6 -6z"/>
<path d="M3718 5323 c7 -3 16 -2 19 1 4 3 -2 6 -13 5 -11 0 -14 -3 -6 -6z"/>
<path d="M11528 5323 c7 -3 16 -2 19 1 4 3 -2 6 -13 5 -11 0 -14 -3 -6 -6z"/>
<path d="M3640 5310 c-24 -8 -24 -8 5 -9 17 0 37 4 45 9 12 8 11 10 -5 9 -11
-1 -31 -5 -45 -9z"/>
<path d="M2430 5306 c0 -2 7 -7 16 -10 8 -3 12 -2 9 4 -6 10 -25 14 -25 6z"/>
<path d="M9198 5293 c7 -3 16 -2 19 1 4 3 -2 6 -13 5 -11 0 -14 -3 -6 -6z"/>
<path d="M10393 5273 c-21 -8 -15 -22 7 -16 11 3 20 9 20 14 0 10 -8 10 -27 2z"/>
<path d="M990 5263 c8 -3 21 -10 28 -16 9 -7 11 -6 6 7 -3 9 -16 16 -28 15
-14 0 -16 -2 -6 -6z"/>
<path d="M2570 5233 c0 -1 8 -7 18 -12 13 -7 19 -6 19 2 0 7 -9 13 -19 13 -10
0 -18 -1 -18 -3z"/>
<path d="M3518 5233 c7 -3 16 -2 19 1 4 3 -2 6 -13 5 -11 0 -14 -3 -6 -6z"/>
<path d="M11475 5219 c-4 -6 -5 -12 -2 -15 2 -3 7 2 10 11 7 17 1 20 -8 4z"/>
<path d="M2745 5210 c19 -8 73 -14 64 -6 -2 2 -22 6 -44 9 -28 5 -34 4 -20 -3z"/>
<path d="M2838 5213 c7 -3 16 -2 19 1 4 3 -2 6 -13 5 -11 0 -14 -3 -6 -6z"/>
<path d="M3408 5213 c6 -2 18 -2 25 0 6 3 1 5 -13 5 -14 0 -19 -2 -12 -5z"/>
<path d="M3260 5200 c20 -13 33 -13 25 0 -3 6 -14 10 -23 10 -15 0 -15 -2 -2
-10z"/>
<path d="M3284 5148 c-14 -17 -15 -19 -2 -10 10 8 26 11 40 7 20 -7 21 -6 6 9
-21 20 -21 20 -44 -6z"/>
<path d="M9275 5150 c-3 -5 -2 -10 4 -10 5 0 13 5 16 10 3 6 2 10 -4 10 -5 0
-13 -4 -16 -10z"/>
<path d="M10318 5153 c7 -3 16 -2 19 1 4 3 -2 6 -13 5 -11 0 -14 -3 -6 -6z"/>
<path d="M2968 5123 c7 -3 16 -2 19 1 4 3 -2 6 -13 5 -11 0 -14 -3 -6 -6z"/>
<path d="M8440 5126 c0 -2 7 -7 16 -10 8 -3 12 -2 9 4 -6 10 -25 14 -25 6z"/>
<path d="M5710 5066 c0 -2 7 -7 16 -10 8 -3 12 -2 9 4 -6 10 -25 14 -25 6z"/>
<path d="M9360 5016 c5 -5 20 -11 32 -13 18 -3 20 -1 10 9 -6 6 -21 12 -32 13
-14 1 -17 -2 -10 -9z"/>
<path d="M10100 5000 c0 -5 5 -10 11 -10 5 0 7 5 4 10 -3 6 -8 10 -11 10 -2 0
-4 -4 -4 -10z"/>
<path d="M10070 4980 c-9 -6 -10 -10 -3 -10 6 0 15 5 18 10 8 12 4 12 -15 0z"/>
<path d="M9507 4949 c7 -7 15 -10 18 -7 3 3 -2 9 -12 12 -14 6 -15 5 -6 -5z"/>
<path d="M8528 4923 c7 -3 16 -2 19 1 4 3 -2 6 -13 5 -11 0 -14 -3 -6 -6z"/>
<path d="M9975 4920 c-3 -5 1 -10 9 -10 9 0 16 5 16 10 0 6 -4 10 -9 10 -6 0
-13 -4 -16 -10z"/>
<path d="M11332 4900 c-7 -11 -8 -20 -3 -20 9 0 24 30 18 36 -1 2 -8 -6 -15
-16z"/>
<path d="M9640 4906 c0 -2 8 -10 18 -17 15 -13 16 -12 3 4 -13 16 -21 21 -21
13z"/>
<path d="M9870 4900 c-9 -6 -10 -10 -3 -10 6 0 15 5 18 10 8 12 4 12 -15 0z"/>
<path d="M9773 4893 c9 -2 25 -2 35 0 9 3 1 5 -18 5 -19 0 -27 -2 -17 -5z"/>
<path d="M11350 4870 c0 -5 5 -10 11 -10 5 0 7 5 4 10 -3 6 -8 10 -11 10 -2 0
-4 -4 -4 -10z"/>
<path d="M11291 4863 c-1 -17 16 -25 25 -12 4 7 3 9 -4 5 -5 -3 -13 0 -15 6
-4 9 -6 10 -6 1z"/>
<path d="M5430 4780 c0 -5 7 -10 16 -10 8 0 12 5 9 10 -3 6 -10 10 -16 10 -5
0 -9 -4 -9 -10z"/>
<path d="M11238 4733 c7 -3 16 -2 19 1 4 3 -2 6 -13 5 -11 0 -14 -3 -6 -6z"/>
<path d="M8635 4710 c3 -5 10 -10 16 -10 5 0 9 5 9 10 0 6 -7 10 -16 10 -8 0
-12 -4 -9 -10z"/>
<path d="M11200 4650 c0 -5 5 -10 10 -10 6 0 10 5 10 10 0 6 -4 10 -10 10 -5
0 -10 -4 -10 -10z"/>
<path d="M8737 4549 c7 -7 15 -10 18 -7 3 3 -2 9 -12 12 -14 6 -15 5 -6 -5z"/>
<path d="M11030 4520 c0 -5 5 -10 11 -10 5 0 7 5 4 10 -3 6 -8 10 -11 10 -2 0
-4 -4 -4 -10z"/>
<path d="M11059 4473 c-13 -16 -12 -17 4 -4 16 13 21 21 13 21 -2 0 -10 -8
-17 -17z"/>
<path d="M5095 4441 c-3 -5 -2 -12 3 -15 5 -3 9 1 9 9 0 17 -3 19 -12 6z"/>
<path d="M1535 4420 c-3 -5 -1 -10 4 -10 6 0 11 5 11 10 0 6 -2 10 -4 10 -3 0
-8 -4 -11 -10z"/>
<path d="M5045 4420 l-30 -8 27 -1 c15 0 30 4 33 9 3 6 5 9 3 9 -2 -1 -16 -5
-33 -9z"/>
<path d="M5125 4420 c-3 -5 -1 -10 4 -10 6 0 11 5 11 10 0 6 -2 10 -4 10 -3 0
-8 -4 -11 -10z"/>
<path d="M8895 4411 c-6 -11 13 -26 22 -17 4 3 0 6 -8 6 -11 0 -11 2 1 10 9 6
10 10 3 10 -6 0 -14 -4 -18 -9z"/>
<path d="M4924 4331 c4 -5 1 -12 -4 -14 -6 -3 -5 -4 2 -3 15 3 23 26 8 26 -6
0 -9 -4 -6 -9z"/>
<path d="M8990 4320 c0 -5 5 -10 11 -10 5 0 7 5 4 10 -3 6 -8 10 -11 10 -2 0
-4 -4 -4 -10z"/>
<path d="M10870 4320 c0 -5 7 -7 15 -4 8 4 15 8 15 10 0 2 -7 4 -15 4 -8 0
-15 -4 -15 -10z"/>
<path d="M1730 4286 c0 -2 7 -7 16 -10 8 -3 12 -2 9 4 -6 10 -25 14 -25 6z"/>
<path d="M1710 4276 c0 -2 8 -10 18 -17 15 -13 16 -12 3 4 -13 16 -21 21 -21
13z"/>
<path d="M10756 4258 c3 -5 10 -6 15 -3 13 9 11 12 -6 12 -8 0 -12 -4 -9 -9z"/>
<path d="M10746 4239 c3 -6 0 -15 -7 -20 -10 -6 -5 -9 15 -9 28 0 29 0 11 20
-20 22 -30 27 -19 9z"/>
<path d="M4839 4223 c-13 -16 -12 -17 4 -4 16 13 21 21 13 21 -2 0 -10 -8 -17
-17z"/>
<path d="M9056 4231 c-12 -5 -15 -10 -9 -14 6 -4 16 0 23 8 14 17 13 17 -14 6z"/>
<path d="M1897 4219 c7 -7 15 -10 18 -7 3 3 -2 9 -12 12 -14 6 -15 5 -6 -5z"/>
<path d="M9139 4218 c15 -21 31 -23 31 -6 0 6 -3 8 -7 5 -3 -4 -13 -1 -22 6
-14 11 -14 10 -2 -5z"/>
<path d="M10660 4194 c-10 -11 -10 -14 1 -14 8 0 20 4 27 9 11 7 11 9 -1 14
-9 3 -21 -1 -27 -9z"/>
<path d="M9200 4186 c0 -3 9 -10 20 -16 11 -6 20 -8 20 -6 0 3 -9 10 -20 16
-11 6 -20 8 -20 6z"/>
<path d="M10616 4181 c-4 -5 -2 -12 3 -15 5 -4 12 -2 15 3 4 5 2 12 -3 15 -5
4 -12 2 -15 -3z"/>
<path d="M10555 4145 c-39 -17 -21 -18 25 0 19 7 28 14 20 14 -8 0 -28 -6 -45
-14z"/>
<path d="M10490 4120 c-12 -7 -10 -9 8 -7 12 0 22 5 22 9 0 11 -12 10 -30 -2z"/>
<path d="M4620 4110 c-9 -6 -10 -10 -3 -10 6 0 15 5 18 10 8 12 4 12 -15 0z"/>
<path d="M9403 4103 c-7 -2 -13 -11 -13 -19 0 -9 -4 -12 -10 -9 -5 3 -10 1
-10 -4 0 -6 3 -11 8 -11 10 0 39 20 28 20 -5 0 -3 7 4 15 13 16 13 16 -7 8z"/>
<path d="M2068 4088 c6 -6 18 -8 28 -6 14 3 12 5 -9 10 -19 3 -25 2 -19 -4z"/>
<path d="M10507 4087 c-3 -8 1 -14 8 -14 7 0 11 6 8 14 -3 7 -6 13 -8 13 -2 0
-5 -6 -8 -13z"/>
<path d="M4440 4080 c0 -7 -7 -10 -15 -7 -8 4 -17 2 -20 -3 -3 -4 6 -7 20 -5
31 3 40 11 26 20 -6 3 -11 1 -11 -5z"/>
<path d="M4337 4059 c7 -7 15 -10 18 -7 3 3 -2 9 -12 12 -14 6 -15 5 -6 -5z"/>
<path d="M4485 4060 c-3 -6 1 -7 9 -4 18 7 21 14 7 14 -6 0 -13 -4 -16 -10z"/>
<path d="M9458 4063 c6 -2 18 -2 25 0 6 3 1 5 -13 5 -14 0 -19 -2 -12 -5z"/>
<path d="M9688 4043 c6 -2 18 -2 25 0 6 3 1 5 -13 5 -14 0 -19 -2 -12 -5z"/>
<path d="M10410 4040 c0 -5 5 -10 10 -10 6 0 10 5 10 10 0 6 -4 10 -10 10 -5
0 -10 -4 -10 -10z"/>
<path d="M4368 4033 c7 -3 16 -2 19 1 4 3 -2 6 -13 5 -11 0 -14 -3 -6 -6z"/>
<path d="M10358 4033 c6 -2 18 -2 25 0 6 3 1 5 -13 5 -14 0 -19 -2 -12 -5z"/>
<path d="M2105 4020 c3 -5 8 -10 11 -10 2 0 4 5 4 10 0 6 -5 10 -11 10 -5 0
-7 -4 -4 -10z"/>
<path d="M9690 4020 c8 -5 22 -9 30 -9 10 0 8 3 -5 9 -27 12 -43 12 -25 0z"/>
<path d="M10138 4023 c7 -3 16 -2 19 1 4 3 -2 6 -13 5 -11 0 -14 -3 -6 -6z"/>
<path d="M9890 4010 c-58 -3 -91 -7 -74 -8 16 -1 36 -8 43 -14 11 -10 13 -10
7 0 -5 9 10 12 63 12 41 0 71 4 71 10 0 6 -1 9 -2 8 -2 -1 -50 -5 -108 -8z"/>
<path d="M10080 4016 c0 -2 11 -6 25 -8 13 -3 22 -1 19 3 -5 9 -44 13 -44 5z"/>
<path d="M10015 4000 c-3 -6 1 -7 9 -4 18 7 21 14 7 14 -6 0 -13 -4 -16 -10z"/>
<path d="M10208 3993 c7 -3 16 -2 19 1 4 3 -2 6 -13 5 -11 0 -14 -3 -6 -6z"/>
<path d="M4172 3974 c-14 -16 -5 -18 17 -5 7 5 9 11 5 14 -5 3 -15 -1 -22 -9z"/>
<path d="M9990 3986 c0 -2 8 -10 18 -17 15 -13 16 -12 3 4 -13 16 -21 21 -21
13z"/>
<path d="M10143 3983 c9 -2 23 -2 30 0 6 3 -1 5 -18 5 -16 0 -22 -2 -12 -5z"/>
<path d="M9677 3969 c7 -7 15 -10 18 -7 3 3 -2 9 -12 12 -14 6 -15 5 -6 -5z"/>
<path d="M4228 3943 c7 -3 16 -2 19 1 4 3 -2 6 -13 5 -11 0 -14 -3 -6 -6z"/>
<path d="M4016 3918 c3 -5 10 -6 15 -3 13 9 11 12 -6 12 -8 0 -12 -4 -9 -9z"/>
<path d="M2308 3913 c7 -3 16 -2 19 1 4 3 -2 6 -13 5 -11 0 -14 -3 -6 -6z"/>
<path d="M3970 3909 c0 -5 9 -9 20 -9 11 0 20 2 20 4 0 2 -9 6 -20 9 -11 3
-20 1 -20 -4z"/>
<path d="M3918 3903 c6 -2 18 -2 25 0 6 3 1 5 -13 5 -14 0 -19 -2 -12 -5z"/>
<path d="M4050 3880 c8 -5 20 -10 25 -10 6 0 3 5 -5 10 -8 5 -19 10 -25 10 -5
0 -3 -5 5 -10z"/>
<path d="M2475 3870 c3 -5 11 -10 16 -10 6 0 7 5 4 10 -3 6 -11 10 -16 10 -6
0 -7 -4 -4 -10z"/>
<path d="M3235 3830 c-15 -6 -11 -7 18 -7 20 1 37 5 37 9 0 10 -29 9 -55 -2z"/>
<path d="M3528 3833 c7 -3 16 -2 19 1 4 3 -2 6 -13 5 -11 0 -14 -3 -6 -6z"/>
<path d="M3568 3833 c7 -3 16 -2 19 1 4 3 -2 6 -13 5 -11 0 -14 -3 -6 -6z"/>
<path d="M3608 3833 c6 -2 18 -2 25 0 6 3 1 5 -13 5 -14 0 -19 -2 -12 -5z"/>
<path d="M3040 3819 c0 -5 5 -7 10 -4 6 3 10 8 10 11 0 2 -4 4 -10 4 -5 0 -10
-5 -10 -11z"/>
<path d="M3375 3790 c-3 -6 1 -7 9 -4 18 7 21 14 7 14 -6 0 -13 -4 -16 -10z"/>
<path d="M3340 3770 c-9 -6 -10 -10 -3 -10 6 0 15 5 18 10 8 12 4 12 -15 0z"/>
</g>
</svg>
