<?xml version="1.0" encoding="utf-8"?>
<!-- Generator: Adobe Illustrator 17.0.2, SVG Export Plug-In . SVG Version: 6.00 Build 0)  -->
<!DOCTYPE svg PUBLIC "-//W3C//DTD SVG 1.1//EN" "http://www.w3.org/Graphics/SVG/1.1/DTD/svg11.dtd">
<svg version="1.1" id="Capa_1" xmlns="http://www.w3.org/2000/svg" xmlns:xlink="http://www.w3.org/1999/xlink" x="0px" y="0px"
	 width="236.369px" height="26.081px" viewBox="0 0 236.369 26.081" enable-background="new 0 0 236.369 26.081"
	 xml:space="preserve">
<g enable-background="new    ">
	<path fill="#E25928" d="M4.236,5.915C4.529,6.22,4.705,6.527,4.764,6.838s0.059,0.595,0,0.853C4.705,8.019,4.576,8.355,4.377,8.701
		S3.949,9.395,3.691,9.747s-0.518,0.697-0.782,1.037s-0.501,0.662-0.712,0.966c-0.211,0.306-0.367,0.587-0.466,0.844
		c-0.1,0.259-0.114,0.481-0.044,0.668c0.058,0.141,0.176,0.22,0.352,0.237s0.38-0.005,0.615-0.07
		c0.234-0.063,0.486-0.158,0.756-0.281c0.269-0.123,0.53-0.251,0.782-0.387c0.252-0.134,0.478-0.26,0.677-0.378
		c0.199-0.116,0.346-0.204,0.439-0.264c0.105-0.093,0.211-0.099,0.316-0.018c0.105,0.083,0.188,0.2,0.246,0.352
		c0.059,0.153,0.085,0.316,0.079,0.492s-0.073,0.312-0.202,0.404c-0.176,0.105-0.401,0.236-0.677,0.387
		c-0.275,0.153-0.574,0.306-0.896,0.457c-0.322,0.153-0.656,0.288-1.001,0.404c-0.346,0.117-0.68,0.19-1.002,0.22
		c-0.323,0.029-0.622-0.003-0.896-0.097c-0.276-0.094-0.501-0.269-0.677-0.527c-0.223-0.327-0.311-0.691-0.264-1.09
		c0.046-0.397,0.172-0.805,0.378-1.222c0.205-0.415,0.459-0.831,0.765-1.247c0.304-0.416,0.6-0.814,0.888-1.195
		C2.651,9.059,2.901,8.71,3.112,8.394s0.322-0.586,0.334-0.809c0.011-0.164-0.012-0.346-0.07-0.545
		C3.316,6.841,3.217,6.642,3.077,6.442C3.041,6.313,3.073,6.196,3.173,6.091c0.099-0.105,0.22-0.188,0.36-0.246
		S3.814,5.76,3.955,5.766S4.189,5.821,4.236,5.915z M3.885,4.386C3.85,4.573,3.75,4.711,3.586,4.799
		C3.422,4.887,3.249,4.922,3.068,4.904C2.886,4.887,2.722,4.822,2.576,4.711C2.429,4.6,2.361,4.438,2.373,4.228
		C2.409,4.017,2.514,3.864,2.69,3.77s0.354-0.135,0.536-0.123C3.407,3.659,3.569,3.727,3.709,3.85S3.908,4.151,3.885,4.386z"/>
	<path fill="#E25928" d="M11.73,9.94L7.336,6.249c-0.164-0.176-0.24-0.352-0.229-0.527s0.07-0.325,0.176-0.448
		s0.24-0.208,0.404-0.255S8.01,4.989,8.162,5.071c0.223,0.246,0.492,0.51,0.809,0.791s0.65,0.568,1.002,0.861
		s0.703,0.574,1.055,0.844s0.662,0.516,0.932,0.738l0.826-4.658c0.035-0.141,0.123-0.237,0.264-0.29s0.284-0.064,0.431-0.035
		s0.278,0.097,0.396,0.202s0.17,0.234,0.158,0.387v0.035l-1.635,10.266c-0.07,0.188-0.173,0.311-0.308,0.369
		s-0.272,0.067-0.413,0.026s-0.261-0.123-0.36-0.246s-0.149-0.272-0.149-0.448L11.73,9.94z"/>
	<path fill="#E25928" d="M19.927,10.186c-0.234,0.809-0.483,1.512-0.747,2.109s-0.56,1.087-0.888,1.468
		c-0.328,0.381-0.688,0.642-1.081,0.782s-0.835,0.152-1.327,0.035c-0.328-0.082-0.557-0.278-0.686-0.589s-0.176-0.695-0.141-1.152
		s0.141-0.961,0.316-1.512s0.396-1.104,0.659-1.661s0.562-1.09,0.896-1.6s0.68-0.949,1.037-1.318s0.715-0.645,1.072-0.826
		s0.694-0.226,1.011-0.132c0.352,0.105,0.595,0.331,0.729,0.677s0.217,0.855,0.246,1.529S21.07,9.539,21.07,10.6
		s0.047,2.358,0.141,3.894c-0.023,0.176-0.105,0.305-0.246,0.387s-0.296,0.123-0.466,0.123s-0.328-0.035-0.475-0.105
		s-0.237-0.176-0.272-0.316c0.012-0.176,0.029-0.425,0.053-0.747c0.023-0.323,0.044-0.683,0.062-1.082s0.035-0.82,0.053-1.266
		S19.939,10.608,19.927,10.186z M19.347,7.304c-0.234,0.047-0.483,0.22-0.747,0.519s-0.521,0.659-0.773,1.081
		s-0.483,0.876-0.694,1.362s-0.381,0.943-0.51,1.371s-0.211,0.797-0.246,1.107s0.006,0.501,0.123,0.571
		c0.188,0.117,0.398,0.07,0.633-0.141s0.472-0.513,0.712-0.905s0.472-0.841,0.694-1.345s0.41-0.996,0.562-1.477
		s0.255-0.917,0.308-1.31S19.441,7.468,19.347,7.304z"/>
	<path fill="#E25928" d="M30.362,14.775c-0.34,0-0.636-0.1-0.888-0.299s-0.463-0.454-0.633-0.765
		c-0.17-0.311-0.305-0.666-0.404-1.064s-0.176-0.797-0.229-1.195s-0.088-0.779-0.105-1.143s-0.026-0.668-0.026-0.914
		c0-0.281,0.009-0.618,0.026-1.011s0.056-0.797,0.114-1.213s0.146-0.832,0.264-1.248s0.278-0.797,0.483-1.143
		s0.457-0.639,0.756-0.879s0.665-0.39,1.099-0.448c0.211-0.012,0.404-0.006,0.58,0.018s0.343,0.064,0.501,0.123
		s0.316,0.135,0.475,0.229s0.331,0.205,0.519,0.334c0.105,0.082,0.179,0.185,0.22,0.308s0.05,0.246,0.026,0.369
		s-0.079,0.231-0.167,0.325s-0.208,0.146-0.36,0.158C32.448,5.329,32.307,5.3,32.19,5.229s-0.231-0.149-0.343-0.237
		s-0.229-0.17-0.352-0.246s-0.272-0.108-0.448-0.097c-0.188,0.012-0.381,0.1-0.58,0.264s-0.378,0.431-0.536,0.8
		s-0.287,0.853-0.387,1.45s-0.144,1.33-0.132,2.197c0.012,0.516,0.041,1.025,0.088,1.529s0.117,0.955,0.211,1.354
		s0.211,0.718,0.352,0.958s0.316,0.343,0.527,0.308c0.305-0.082,0.601-0.237,0.888-0.466s0.551-0.521,0.791-0.879
		s0.454-0.771,0.642-1.239s0.346-0.979,0.475-1.529c0.047-0.211,0.146-0.34,0.299-0.387s0.308-0.041,0.466,0.018
		s0.29,0.152,0.396,0.281s0.129,0.258,0.07,0.387c-0.117,0.504-0.29,1.043-0.519,1.617s-0.519,1.107-0.87,1.6
		s-0.765,0.915-1.239,1.266S30.972,14.728,30.362,14.775z"/>
	<path fill="#E25928" d="M36.538,8.27c0.141-0.48,0.346-0.938,0.615-1.371s0.621-0.797,1.055-1.09
		c0.176-0.105,0.337-0.17,0.483-0.193s0.275-0.021,0.387,0.009s0.196,0.076,0.255,0.141s0.082,0.126,0.07,0.185
		c0.492,0,0.917,0.091,1.274,0.272s0.653,0.431,0.888,0.747s0.407,0.694,0.519,1.134s0.161,0.923,0.149,1.45
		c-0.012,0.609-0.073,1.21-0.185,1.802s-0.287,1.125-0.527,1.6s-0.548,0.862-0.923,1.161s-0.826,0.454-1.354,0.466
		c-0.434,0.012-0.817-0.079-1.151-0.272s-0.621-0.457-0.861-0.792c-0.24-0.334-0.434-0.718-0.58-1.151s-0.249-0.888-0.308-1.362
		s-0.07-0.946-0.035-1.415S36.421,8.681,36.538,8.27z M39.28,7.163c-0.398,0-0.724,0.152-0.976,0.457s-0.434,0.688-0.545,1.151
		s-0.161,0.964-0.149,1.503s0.082,1.04,0.211,1.503s0.305,0.853,0.527,1.169s0.492,0.475,0.809,0.475
		c0.328,0,0.609-0.129,0.844-0.387s0.425-0.589,0.571-0.993s0.252-0.847,0.316-1.327s0.091-0.932,0.079-1.354
		c-0.023-0.715-0.17-1.26-0.439-1.635S39.843,7.163,39.28,7.163z"/>
	<path fill="#E25928" d="M49.34,14.248c0.035-0.821,0.035-1.653,0-2.497s-0.108-1.605-0.22-2.285s-0.255-1.23-0.431-1.652
		s-0.387-0.621-0.633-0.598c-0.152,0.012-0.331,0.19-0.536,0.536s-0.413,0.832-0.624,1.459s-0.413,1.374-0.606,2.241
		s-0.354,1.834-0.483,2.901c-0.023,0.164-0.12,0.281-0.29,0.352s-0.354,0.091-0.554,0.062s-0.375-0.097-0.527-0.202
		s-0.217-0.252-0.193-0.439c0.047-0.211,0.085-0.53,0.114-0.958c0.029-0.428,0.05-0.896,0.062-1.406s0.018-1.04,0.018-1.591
		s-0.006-1.058-0.018-1.521s-0.032-0.853-0.062-1.169s-0.056-0.51-0.079-0.58c-0.023-0.152,0.032-0.275,0.167-0.369
		s0.287-0.144,0.457-0.149s0.328,0.026,0.475,0.097s0.226,0.193,0.237,0.369c0.012,0.211,0.018,0.404,0.018,0.58s0,0.354,0,0.536
		s0.003,0.378,0.009,0.589s0.015,0.457,0.026,0.738c0.082-0.234,0.176-0.545,0.281-0.932s0.246-0.765,0.422-1.134
		s0.407-0.688,0.694-0.958s0.659-0.398,1.116-0.387c0.188,0,0.375,0.038,0.562,0.114s0.366,0.217,0.536,0.422
		s0.334,0.495,0.492,0.87s0.302,0.864,0.431,1.468s0.246,1.336,0.352,2.197s0.199,1.884,0.281,3.068
		c0,0.199-0.079,0.349-0.237,0.448s-0.328,0.155-0.51,0.167s-0.352-0.015-0.51-0.079S49.34,14.388,49.34,14.248z"/>
	<path fill="#E25928" d="M52.95,8.27c0.141-0.48,0.346-0.938,0.615-1.371s0.621-0.797,1.055-1.09
		c0.176-0.105,0.337-0.17,0.483-0.193s0.275-0.021,0.387,0.009s0.196,0.076,0.255,0.141s0.082,0.126,0.07,0.185
		c0.492,0,0.917,0.091,1.274,0.272s0.653,0.431,0.888,0.747s0.407,0.694,0.519,1.134s0.161,0.923,0.149,1.45
		c-0.012,0.609-0.073,1.21-0.185,1.802s-0.287,1.125-0.527,1.6s-0.548,0.862-0.923,1.161s-0.826,0.454-1.354,0.466
		c-0.434,0.012-0.817-0.079-1.151-0.272s-0.621-0.457-0.861-0.792c-0.24-0.334-0.434-0.718-0.58-1.151s-0.249-0.888-0.308-1.362
		s-0.07-0.946-0.035-1.415S52.832,8.681,52.95,8.27z M55.692,7.163c-0.398,0-0.724,0.152-0.976,0.457s-0.434,0.688-0.545,1.151
		s-0.161,0.964-0.149,1.503s0.082,1.04,0.211,1.503s0.305,0.853,0.527,1.169s0.492,0.475,0.809,0.475
		c0.328,0,0.609-0.129,0.844-0.387s0.425-0.589,0.571-0.993s0.252-0.847,0.316-1.327s0.091-0.932,0.079-1.354
		c-0.023-0.715-0.17-1.26-0.439-1.635S56.254,7.163,55.692,7.163z"/>
	<path fill="#E25928" d="M63.326,14.458c-0.574,0.023-1.049-0.085-1.424-0.325s-0.665-0.562-0.87-0.967
		c-0.205-0.404-0.328-0.87-0.369-1.397s-0.021-1.066,0.062-1.617s0.223-1.09,0.422-1.617s0.442-0.999,0.729-1.415
		s0.606-0.747,0.958-0.993s0.721-0.363,1.107-0.352c0.34,0.012,0.598,0.123,0.773,0.334s0.296,0.466,0.36,0.765
		s0.088,0.612,0.07,0.94s-0.044,0.615-0.079,0.861c-0.035,0.152-0.123,0.255-0.264,0.308s-0.287,0.07-0.439,0.053
		s-0.284-0.067-0.396-0.149s-0.144-0.193-0.097-0.334c0.035-0.117,0.07-0.264,0.105-0.439s0.059-0.346,0.07-0.51
		s0.006-0.302-0.018-0.413s-0.07-0.167-0.141-0.167c-0.34,0.035-0.647,0.214-0.923,0.536s-0.501,0.721-0.677,1.195
		s-0.302,0.981-0.378,1.521s-0.085,1.037-0.026,1.494s0.188,0.835,0.387,1.134s0.486,0.442,0.861,0.431
		c0.152,0,0.331-0.047,0.536-0.141s0.419-0.243,0.642-0.448s0.434-0.478,0.633-0.817s0.363-0.768,0.492-1.283
		c0.035-0.117,0.117-0.19,0.246-0.22s0.261-0.026,0.396,0.009s0.252,0.105,0.352,0.211s0.144,0.229,0.132,0.369
		c-0.164,0.527-0.366,1.002-0.606,1.424s-0.504,0.779-0.791,1.072c-0.287,0.293-0.589,0.522-0.905,0.686
		S63.631,14.447,63.326,14.458z"/>
	<path fill="#E25928" d="M74.969,9.729c-0.422,0.914-0.87,1.682-1.345,2.303s-0.94,1.119-1.397,1.494
		c-0.457,0.375-0.888,0.645-1.292,0.809s-0.741,0.24-1.011,0.229c-0.375-0.012-0.662-0.146-0.861-0.404s-0.337-0.562-0.413-0.915
		c-0.076-0.352-0.108-0.718-0.097-1.099s0.035-0.694,0.07-0.94c-0.188-0.094-0.316-0.208-0.387-0.343s-0.111-0.278-0.123-0.431
		c-0.012-0.141,0.012-0.246,0.07-0.316s0.129-0.123,0.211-0.158s0.164-0.056,0.246-0.062s0.152-0.015,0.211-0.026
		c0.211-0.738,0.413-1.368,0.606-1.89s0.442-0.987,0.747-1.397c0.223-0.305,0.469-0.539,0.738-0.703s0.53-0.272,0.782-0.325
		s0.486-0.05,0.703,0.009s0.384,0.152,0.501,0.281c0.234,0.27,0.375,0.568,0.422,0.896s0.021,0.662-0.079,1.002
		s-0.255,0.677-0.466,1.011s-0.457,0.636-0.738,0.905c-0.152,0.152-0.319,0.302-0.501,0.448s-0.366,0.284-0.554,0.413
		s-0.372,0.246-0.554,0.352s-0.349,0.193-0.501,0.264c-0.059,0.223-0.1,0.451-0.123,0.686s-0.029,0.451-0.018,0.65
		s0.041,0.363,0.088,0.492s0.117,0.199,0.211,0.211c0.188,0.023,0.416-0.026,0.686-0.149s0.562-0.34,0.879-0.65
		s0.659-0.727,1.028-1.248s0.759-1.169,1.169-1.942C73.926,9.079,74.019,9.018,74.16,9s0.278-0.003,0.413,0.044
		s0.246,0.129,0.334,0.246S75.016,9.554,74.969,9.729z M70.187,9.589c0.129-0.059,0.311-0.179,0.545-0.36s0.457-0.396,0.668-0.642
		c0.117-0.141,0.234-0.296,0.352-0.466s0.208-0.334,0.272-0.492s0.097-0.305,0.097-0.439s-0.053-0.237-0.158-0.308
		c-0.129-0.094-0.29-0.038-0.483,0.167s-0.381,0.466-0.562,0.782s-0.34,0.645-0.475,0.984S70.223,9.413,70.187,9.589z"/>
	<path fill="#E25928" d="M78.999,13.843c0.211-0.152,0.46-0.367,0.747-0.642s0.551-0.56,0.791-0.853s0.428-0.56,0.562-0.8
		s0.149-0.401,0.044-0.483c-0.082-0.047-0.237-0.059-0.466-0.035s-0.495,0.056-0.8,0.097s-0.63,0.082-0.976,0.123
		s-0.677,0.053-0.993,0.035s-0.598-0.073-0.844-0.167s-0.416-0.252-0.51-0.475c-0.047-0.105-0.082-0.24-0.105-0.404
		s-0.021-0.349,0.009-0.554s0.094-0.425,0.193-0.659s0.249-0.475,0.448-0.721c0.305-0.375,0.647-0.721,1.028-1.037
		s0.779-0.589,1.195-0.817s0.841-0.404,1.274-0.527s0.861-0.179,1.283-0.167c0.258,0.012,0.454,0.085,0.589,0.22
		s0.211,0.281,0.229,0.439s-0.023,0.302-0.123,0.431s-0.261,0.182-0.483,0.158c-0.387-0.035-0.779,0.015-1.178,0.149
		s-0.771,0.311-1.116,0.527s-0.662,0.454-0.949,0.712s-0.516,0.501-0.686,0.729s-0.27,0.422-0.299,0.58s0.038,0.243,0.202,0.255
		c0.316,0.023,0.686-0.003,1.107-0.079s0.85-0.141,1.283-0.193s0.838-0.064,1.213-0.035s0.68,0.155,0.914,0.378
		c0.164,0.164,0.24,0.378,0.229,0.642s-0.085,0.548-0.22,0.853s-0.313,0.618-0.536,0.94s-0.454,0.627-0.694,0.914
		c-0.24,0.288-0.478,0.545-0.712,0.774s-0.428,0.396-0.58,0.501c-0.094,0.141-0.226,0.202-0.396,0.185s-0.325-0.079-0.466-0.185
		s-0.243-0.234-0.308-0.387S78.87,13.972,78.999,13.843z"/>
	<path fill="#E25928" d="M89.786,3.929c-0.012-0.129,0.041-0.243,0.158-0.343s0.252-0.161,0.404-0.185s0.305,0.003,0.457,0.079
		s0.258,0.22,0.316,0.431c0.023,0.656,0.047,1.403,0.07,2.241s0.044,1.714,0.062,2.628s0.038,1.837,0.062,2.769
		s0.053,1.808,0.088,2.628c0.012,0.152-0.053,0.267-0.193,0.343s-0.299,0.117-0.475,0.123s-0.337-0.015-0.483-0.062
		s-0.214-0.111-0.202-0.193L89.786,3.929z"/>
	<path fill="#E25928" d="M98.405,10.186c-0.234,0.809-0.483,1.512-0.747,2.109s-0.56,1.087-0.888,1.468
		c-0.328,0.381-0.688,0.642-1.081,0.782s-0.835,0.152-1.327,0.035c-0.328-0.082-0.557-0.278-0.686-0.589s-0.176-0.695-0.141-1.152
		s0.141-0.961,0.316-1.512s0.396-1.104,0.659-1.661s0.562-1.09,0.896-1.6s0.68-0.949,1.037-1.318s0.715-0.645,1.072-0.826
		s0.694-0.226,1.011-0.132c0.352,0.105,0.595,0.331,0.729,0.677s0.217,0.855,0.246,1.529s0.044,1.541,0.044,2.602
		s0.047,2.358,0.141,3.894c-0.023,0.176-0.105,0.305-0.246,0.387s-0.296,0.123-0.466,0.123s-0.328-0.035-0.475-0.105
		s-0.237-0.176-0.272-0.316c0.012-0.176,0.029-0.425,0.053-0.747c0.023-0.323,0.044-0.683,0.062-1.082s0.035-0.82,0.053-1.266
		S98.417,10.608,98.405,10.186z M97.825,7.304c-0.234,0.047-0.483,0.22-0.747,0.519s-0.521,0.659-0.773,1.081
		s-0.483,0.876-0.694,1.362s-0.381,0.943-0.51,1.371s-0.211,0.797-0.246,1.107s0.006,0.501,0.123,0.571
		c0.188,0.117,0.398,0.07,0.633-0.141s0.472-0.513,0.712-0.905s0.472-0.841,0.694-1.345s0.41-0.996,0.562-1.477
		s0.255-0.917,0.308-1.31S97.919,7.468,97.825,7.304z"/>
	<path fill="#E25928" d="M111.6,14.248c0.035-0.821,0.035-1.653,0-2.497s-0.108-1.605-0.22-2.285s-0.255-1.23-0.431-1.652
		s-0.387-0.621-0.633-0.598c-0.152,0.012-0.331,0.19-0.536,0.536s-0.413,0.832-0.624,1.459s-0.413,1.374-0.606,2.241
		s-0.354,1.834-0.483,2.901c-0.023,0.164-0.12,0.281-0.29,0.352s-0.354,0.091-0.554,0.062s-0.375-0.097-0.527-0.202
		s-0.217-0.252-0.193-0.439c0.047-0.211,0.085-0.53,0.114-0.958c0.029-0.428,0.05-0.896,0.062-1.406s0.018-1.04,0.018-1.591
		s-0.006-1.058-0.018-1.521s-0.032-0.853-0.062-1.169s-0.056-0.51-0.079-0.58c-0.023-0.152,0.032-0.275,0.167-0.369
		s0.287-0.144,0.457-0.149s0.328,0.026,0.475,0.097s0.226,0.193,0.237,0.369c0.012,0.211,0.018,0.404,0.018,0.58s0,0.354,0,0.536
		s0.003,0.378,0.009,0.589s0.015,0.457,0.026,0.738c0.082-0.234,0.176-0.545,0.281-0.932s0.246-0.765,0.422-1.134
		s0.407-0.688,0.694-0.958s0.659-0.398,1.116-0.387c0.188,0,0.375,0.038,0.562,0.114s0.366,0.217,0.536,0.422
		s0.334,0.495,0.492,0.87s0.302,0.864,0.431,1.468s0.246,1.336,0.352,2.197s0.199,1.884,0.281,3.068
		c0,0.199-0.079,0.349-0.237,0.448s-0.328,0.155-0.51,0.167s-0.352-0.015-0.51-0.079S111.6,14.388,111.6,14.248z"/>
	<path fill="#E25928" d="M118.848,12.612c-0.082,0.293-0.199,0.557-0.352,0.791c-0.152,0.235-0.316,0.44-0.492,0.616
		s-0.354,0.313-0.536,0.413s-0.349,0.161-0.501,0.185c-0.422,0.059-0.794-0.021-1.116-0.237s-0.577-0.627-0.765-1.231
		c-0.188-0.604-0.296-1.43-0.325-2.479s0.044-2.37,0.22-3.964c-0.023-0.152,0.029-0.27,0.158-0.352s0.278-0.123,0.448-0.123
		s0.325,0.053,0.466,0.158s0.211,0.27,0.211,0.492c-0.223,1.922-0.29,3.428-0.202,4.518s0.319,1.652,0.694,1.688
		c0.059,0.012,0.149-0.003,0.272-0.044s0.261-0.135,0.413-0.281s0.305-0.366,0.457-0.659s0.284-0.694,0.396-1.204
		s0.193-1.146,0.246-1.907s0.056-1.682,0.009-2.76c0-0.129,0.062-0.22,0.185-0.272s0.261-0.073,0.413-0.062s0.296,0.053,0.431,0.123
		s0.202,0.158,0.202,0.264l0.387,8.192c0,0.164-0.062,0.287-0.185,0.369s-0.261,0.129-0.413,0.141s-0.296-0.009-0.431-0.062
		s-0.22-0.132-0.255-0.237L118.848,12.612z"/>
	<path fill="#E25928" d="M128.644,9.729c-0.422,0.914-0.87,1.682-1.345,2.303s-0.94,1.119-1.397,1.494
		c-0.457,0.375-0.888,0.645-1.292,0.809s-0.741,0.24-1.011,0.229c-0.375-0.012-0.662-0.146-0.861-0.404s-0.337-0.562-0.413-0.915
		c-0.076-0.352-0.108-0.718-0.097-1.099s0.035-0.694,0.07-0.94c-0.188-0.094-0.316-0.208-0.387-0.343s-0.111-0.278-0.123-0.431
		c-0.012-0.141,0.012-0.246,0.07-0.316s0.129-0.123,0.211-0.158s0.164-0.056,0.246-0.062s0.152-0.015,0.211-0.026
		c0.211-0.738,0.413-1.368,0.606-1.89s0.442-0.987,0.747-1.397c0.223-0.305,0.469-0.539,0.738-0.703s0.53-0.272,0.782-0.325
		s0.486-0.05,0.703,0.009s0.384,0.152,0.501,0.281c0.234,0.27,0.375,0.568,0.422,0.896s0.021,0.662-0.079,1.002
		s-0.255,0.677-0.466,1.011s-0.457,0.636-0.738,0.905c-0.152,0.152-0.319,0.302-0.501,0.448s-0.366,0.284-0.554,0.413
		s-0.372,0.246-0.554,0.352s-0.349,0.193-0.501,0.264c-0.059,0.223-0.1,0.451-0.123,0.686s-0.029,0.451-0.018,0.65
		s0.041,0.363,0.088,0.492s0.117,0.199,0.211,0.211c0.188,0.023,0.416-0.026,0.686-0.149s0.562-0.34,0.879-0.65
		s0.659-0.727,1.028-1.248s0.759-1.169,1.169-1.942c0.047-0.105,0.141-0.167,0.281-0.185s0.278-0.003,0.413,0.044
		s0.246,0.129,0.334,0.246S128.691,9.554,128.644,9.729z M123.863,9.589c0.129-0.059,0.311-0.179,0.545-0.36
		s0.457-0.396,0.668-0.642c0.117-0.141,0.234-0.296,0.352-0.466s0.208-0.334,0.272-0.492s0.097-0.305,0.097-0.439
		s-0.053-0.237-0.158-0.308c-0.129-0.094-0.29-0.038-0.483,0.167s-0.381,0.466-0.562,0.782s-0.34,0.645-0.475,0.984
		S123.898,9.413,123.863,9.589z"/>
	<path fill="#E25928" d="M129.247,7.198c-0.07-0.141-0.056-0.275,0.044-0.404s0.234-0.223,0.404-0.281s0.34-0.073,0.51-0.044
		s0.29,0.12,0.36,0.272c0.105,0.352,0.337,0.981,0.694,1.89s0.823,2.054,1.397,3.437c0.07-0.094,0.155-0.334,0.255-0.721
		s0.214-0.858,0.343-1.415s0.275-1.178,0.439-1.863s0.346-1.374,0.545-2.065c0.035-0.117,0.12-0.205,0.255-0.264
		s0.278-0.076,0.431-0.053s0.284,0.088,0.396,0.193s0.161,0.258,0.149,0.457l-2.074,8.034c-0.023,0.07-0.088,0.123-0.193,0.158
		s-0.223,0.056-0.352,0.062s-0.249-0.006-0.36-0.035s-0.185-0.073-0.22-0.132L129.247,7.198z"/>
	<path fill="#E25928" d="M141.206,10.186c-0.234,0.809-0.483,1.512-0.747,2.109s-0.56,1.087-0.888,1.468
		c-0.328,0.381-0.688,0.642-1.081,0.782s-0.835,0.152-1.327,0.035c-0.328-0.082-0.557-0.278-0.686-0.589s-0.176-0.695-0.141-1.152
		s0.141-0.961,0.316-1.512s0.396-1.104,0.659-1.661s0.562-1.09,0.896-1.6s0.68-0.949,1.037-1.318s0.715-0.645,1.072-0.826
		s0.694-0.226,1.011-0.132c0.352,0.105,0.595,0.331,0.729,0.677s0.217,0.855,0.246,1.529s0.044,1.541,0.044,2.602
		s0.047,2.358,0.141,3.894c-0.023,0.176-0.105,0.305-0.246,0.387s-0.296,0.123-0.466,0.123s-0.328-0.035-0.475-0.105
		s-0.237-0.176-0.272-0.316c0.012-0.176,0.029-0.425,0.053-0.747c0.023-0.323,0.044-0.683,0.062-1.082s0.035-0.82,0.053-1.266
		S141.218,10.608,141.206,10.186z M140.626,7.304c-0.234,0.047-0.483,0.22-0.747,0.519s-0.521,0.659-0.773,1.081
		s-0.483,0.876-0.694,1.362s-0.381,0.943-0.51,1.371s-0.211,0.797-0.246,1.107s0.006,0.501,0.123,0.571
		c0.188,0.117,0.398,0.07,0.633-0.141s0.472-0.513,0.712-0.905s0.472-0.841,0.694-1.345s0.41-0.996,0.562-1.477
		s0.255-0.917,0.308-1.31S140.72,7.468,140.626,7.304z"/>
	<path fill="#E25928" d="M149.884,10.415c-0.176,0.07-0.319,0.064-0.431-0.018s-0.176-0.208-0.193-0.378s0.021-0.363,0.114-0.58
		s0.258-0.425,0.492-0.624c-0.023-0.211-0.032-0.41-0.026-0.598s0.021-0.357,0.044-0.51c0.035-0.246,0.108-0.425,0.22-0.536
		s0.234-0.176,0.369-0.193s0.264,0.003,0.387,0.062s0.208,0.135,0.255,0.229c0.152-0.129,0.354-0.284,0.606-0.466
		s0.524-0.357,0.817-0.527s0.595-0.308,0.905-0.413s0.606-0.152,0.888-0.141c0.41,0.023,0.706,0.179,0.888,0.466
		s0.29,0.624,0.325,1.011s0.015,0.779-0.062,1.178s-0.167,0.727-0.272,0.984c-0.234,0.551-0.536,1.09-0.905,1.617
		s-0.75,1.008-1.143,1.441s-0.771,0.806-1.134,1.116c-0.363,0.311-0.662,0.525-0.896,0.642l0.018,5.396
		c-0.035,0.199-0.123,0.337-0.264,0.413s-0.29,0.114-0.448,0.114s-0.299-0.038-0.422-0.114s-0.19-0.173-0.202-0.29L149.884,10.415z
		 M151.097,12.56c0.223-0.07,0.469-0.223,0.738-0.457s0.542-0.516,0.817-0.844s0.539-0.691,0.791-1.09s0.46-0.785,0.624-1.16
		s0.272-0.727,0.325-1.055s0.026-0.598-0.079-0.809c-0.07-0.129-0.231-0.158-0.483-0.088s-0.536,0.205-0.853,0.404
		s-0.636,0.442-0.958,0.729s-0.595,0.583-0.817,0.888L151.097,12.56z"/>
	<path fill="#E25928" d="M157.993,14.283c-0.023-0.27-0.05-0.615-0.079-1.038c-0.029-0.422-0.062-0.882-0.097-1.38
		s-0.073-1.011-0.114-1.538s-0.085-1.034-0.132-1.521s-0.091-0.929-0.132-1.327s-0.079-0.715-0.114-0.949
		c0-0.152,0.064-0.258,0.193-0.316s0.278-0.085,0.448-0.079s0.331,0.05,0.483,0.132s0.252,0.188,0.299,0.316l0.123,1.951
		c0.293-0.516,0.697-1.037,1.213-1.564s1.119-0.961,1.811-1.301c0.129-0.117,0.27-0.149,0.422-0.097s0.278,0.146,0.378,0.281
		s0.158,0.287,0.176,0.457s-0.032,0.313-0.149,0.431c-0.27,0.129-0.548,0.29-0.835,0.483s-0.562,0.407-0.826,0.642
		s-0.507,0.48-0.729,0.738s-0.41,0.521-0.562,0.791c-0.129,0.223-0.229,0.478-0.299,0.765s-0.12,0.621-0.149,1.002
		s-0.041,0.82-0.035,1.318s0.026,1.07,0.062,1.714c0,0.176-0.059,0.305-0.176,0.387s-0.255,0.126-0.413,0.132
		s-0.311-0.026-0.457-0.097S158.051,14.435,157.993,14.283z"/>
	<path fill="#E25928" d="M168.686,12.612c-0.082,0.293-0.199,0.557-0.352,0.791c-0.152,0.235-0.316,0.44-0.492,0.616
		s-0.354,0.313-0.536,0.413s-0.349,0.161-0.501,0.185c-0.422,0.059-0.794-0.021-1.116-0.237s-0.577-0.627-0.765-1.231
		c-0.188-0.604-0.296-1.43-0.325-2.479s0.044-2.37,0.22-3.964c-0.023-0.152,0.029-0.27,0.158-0.352s0.278-0.123,0.448-0.123
		s0.325,0.053,0.466,0.158s0.211,0.27,0.211,0.492c-0.223,1.922-0.29,3.428-0.202,4.518s0.319,1.652,0.694,1.688
		c0.059,0.012,0.149-0.003,0.272-0.044s0.261-0.135,0.413-0.281s0.305-0.366,0.457-0.659s0.284-0.694,0.396-1.204
		s0.193-1.146,0.246-1.907s0.056-1.682,0.009-2.76c0-0.129,0.062-0.22,0.185-0.272s0.261-0.073,0.413-0.062s0.296,0.053,0.431,0.123
		s0.202,0.158,0.202,0.264l0.387,8.192c0,0.164-0.062,0.287-0.185,0.369s-0.261,0.129-0.413,0.141s-0.296-0.009-0.431-0.062
		s-0.22-0.132-0.255-0.237L168.686,12.612z"/>
	<path fill="#E25928" d="M178.483,9.729c-0.422,0.914-0.87,1.682-1.345,2.303s-0.94,1.119-1.397,1.494
		c-0.457,0.375-0.888,0.645-1.292,0.809s-0.741,0.24-1.011,0.229c-0.375-0.012-0.662-0.146-0.861-0.404s-0.337-0.562-0.413-0.915
		c-0.076-0.352-0.108-0.718-0.097-1.099s0.035-0.694,0.07-0.94c-0.188-0.094-0.316-0.208-0.387-0.343s-0.111-0.278-0.123-0.431
		c-0.012-0.141,0.012-0.246,0.07-0.316s0.129-0.123,0.211-0.158s0.164-0.056,0.246-0.062s0.152-0.015,0.211-0.026
		c0.211-0.738,0.413-1.368,0.606-1.89s0.442-0.987,0.747-1.397c0.223-0.305,0.469-0.539,0.738-0.703s0.53-0.272,0.782-0.325
		s0.486-0.05,0.703,0.009s0.384,0.152,0.501,0.281c0.234,0.27,0.375,0.568,0.422,0.896s0.021,0.662-0.079,1.002
		s-0.255,0.677-0.466,1.011s-0.457,0.636-0.738,0.905c-0.152,0.152-0.319,0.302-0.501,0.448s-0.366,0.284-0.554,0.413
		s-0.372,0.246-0.554,0.352s-0.349,0.193-0.501,0.264c-0.059,0.223-0.1,0.451-0.123,0.686s-0.029,0.451-0.018,0.65
		s0.041,0.363,0.088,0.492s0.117,0.199,0.211,0.211c0.188,0.023,0.416-0.026,0.686-0.149s0.562-0.34,0.879-0.65
		s0.659-0.727,1.028-1.248s0.759-1.169,1.169-1.942c0.047-0.105,0.141-0.167,0.281-0.185s0.278-0.003,0.413,0.044
		s0.246,0.129,0.334,0.246S178.53,9.554,178.483,9.729z M173.702,9.589c0.129-0.059,0.311-0.179,0.545-0.36s0.457-0.396,0.668-0.642
		c0.117-0.141,0.234-0.296,0.352-0.466s0.208-0.334,0.272-0.492s0.097-0.305,0.097-0.439s-0.053-0.237-0.158-0.308
		c-0.129-0.094-0.29-0.038-0.483,0.167s-0.381,0.466-0.562,0.782s-0.34,0.645-0.475,0.984S173.737,9.413,173.702,9.589z"/>
	<path fill="#E25928" d="M180.651,9.343c-0.164,0.012-0.284-0.023-0.36-0.105s-0.111-0.19-0.105-0.325s0.044-0.29,0.114-0.466
		s0.17-0.352,0.299-0.527c0-0.703,0.012-1.386,0.035-2.048s0-1.38-0.07-2.153c0-0.176,0.067-0.325,0.202-0.448
		s0.284-0.199,0.448-0.229s0.319,0,0.466,0.088s0.237,0.243,0.272,0.466l0.088,2.883c0.27-0.164,0.545-0.319,0.826-0.466
		s0.562-0.261,0.844-0.343s0.565-0.108,0.853-0.079s0.571,0.138,0.853,0.325c0.328,0.223,0.524,0.536,0.589,0.94
		s0.029,0.864-0.105,1.38s-0.349,1.066-0.642,1.652s-0.63,1.163-1.011,1.731s-0.791,1.11-1.23,1.626
		c-0.439,0.516-0.87,0.967-1.292,1.354c-0.152,0.082-0.305,0.12-0.457,0.114s-0.287-0.047-0.404-0.123s-0.205-0.185-0.264-0.325
		s-0.07-0.311-0.035-0.51L180.651,9.343z M182.057,8.376c-0.082,0.621-0.144,1.304-0.185,2.048s-0.056,1.45-0.044,2.118
		c0.176-0.117,0.39-0.322,0.642-0.615s0.51-0.63,0.773-1.011s0.513-0.782,0.747-1.204s0.419-0.82,0.554-1.195
		s0.199-0.703,0.193-0.984s-0.114-0.475-0.325-0.58c-0.188-0.082-0.401-0.088-0.642-0.018s-0.472,0.185-0.694,0.343
		s-0.428,0.337-0.615,0.536S182.139,8.2,182.057,8.376z"/>
	<path fill="#E25928" d="M191.573,10.186c-0.234,0.809-0.483,1.512-0.747,2.109s-0.56,1.087-0.888,1.468
		c-0.328,0.381-0.688,0.642-1.081,0.782s-0.835,0.152-1.327,0.035c-0.328-0.082-0.557-0.278-0.686-0.589s-0.176-0.695-0.141-1.152
		s0.141-0.961,0.316-1.512s0.396-1.104,0.659-1.661s0.562-1.09,0.896-1.6s0.68-0.949,1.037-1.318s0.715-0.645,1.072-0.826
		s0.694-0.226,1.011-0.132c0.352,0.105,0.595,0.331,0.729,0.677s0.217,0.855,0.246,1.529s0.044,1.541,0.044,2.602
		s0.047,2.358,0.141,3.894c-0.023,0.176-0.105,0.305-0.246,0.387s-0.296,0.123-0.466,0.123s-0.328-0.035-0.475-0.105
		s-0.237-0.176-0.272-0.316c0.012-0.176,0.029-0.425,0.053-0.747c0.023-0.323,0.044-0.683,0.062-1.082s0.035-0.82,0.053-1.266
		S191.584,10.608,191.573,10.186z M190.993,7.304c-0.234,0.047-0.483,0.22-0.747,0.519s-0.521,0.659-0.773,1.081
		s-0.483,0.876-0.694,1.362s-0.381,0.943-0.51,1.371s-0.211,0.797-0.246,1.107s0.006,0.501,0.123,0.571
		c0.188,0.117,0.398,0.07,0.633-0.141s0.472-0.513,0.712-0.905s0.472-0.841,0.694-1.345s0.41-0.996,0.562-1.477
		s0.255-0.917,0.308-1.31S191.086,7.468,190.993,7.304z"/>
	<path fill="#E25928" d="M196.13,12.331c-0.293-0.305-0.469-0.612-0.527-0.923s-0.059-0.595,0-0.853
		c0.059-0.328,0.188-0.665,0.387-1.011s0.428-0.694,0.686-1.046s0.519-0.697,0.782-1.037s0.501-0.662,0.712-0.967
		s0.366-0.586,0.466-0.844s0.114-0.48,0.044-0.668c-0.059-0.141-0.176-0.22-0.352-0.237s-0.381,0.006-0.615,0.07
		s-0.486,0.158-0.756,0.281s-0.53,0.252-0.782,0.387s-0.478,0.261-0.677,0.378s-0.346,0.205-0.439,0.264
		c-0.105,0.094-0.211,0.1-0.316,0.018s-0.188-0.199-0.246-0.352s-0.085-0.316-0.079-0.492s0.073-0.311,0.202-0.404
		c0.176-0.105,0.401-0.234,0.677-0.387s0.574-0.305,0.896-0.457s0.656-0.287,1.002-0.404s0.68-0.19,1.002-0.22
		s0.621,0.003,0.896,0.097s0.501,0.27,0.677,0.527c0.223,0.328,0.312,0.691,0.265,1.09c-0.048,0.398-0.174,0.806-0.379,1.222
		s-0.46,0.832-0.765,1.248s-0.601,0.814-0.888,1.195s-0.536,0.729-0.747,1.046s-0.322,0.586-0.334,0.809
		c-0.012,0.164,0.012,0.346,0.07,0.545s0.158,0.398,0.299,0.598c0.035,0.129,0.003,0.246-0.097,0.352s-0.22,0.188-0.36,0.246
		s-0.281,0.085-0.422,0.079S196.177,12.425,196.13,12.331z M196.482,13.861c0.035-0.188,0.135-0.326,0.299-0.414
		s0.337-0.123,0.519-0.105s0.346,0.082,0.492,0.193c0.146,0.112,0.214,0.273,0.202,0.484c-0.035,0.211-0.141,0.363-0.316,0.457
		s-0.354,0.135-0.536,0.123s-0.343-0.079-0.483-0.202S196.458,14.095,196.482,13.861z"/>
</g>
<path fill="none" stroke="#E25928" stroke-miterlimit="10" d="M207,4.581c12.667,0,22,12,22,21"/>
<line fill="none" stroke="#E25928" stroke-linecap="round" stroke-miterlimit="10" x1="229.016" y1="25.581" x2="232.905" y2="18.845"/>
<line fill="none" stroke="#E25928" stroke-linecap="round" stroke-miterlimit="10" x1="229.016" y1="25.581" x2="222.279" y2="21.692"/>
</svg>
